<?xml version="1.0" encoding="utf-8"?>
<!-- Generator: Adobe Illustrator 16.0.0, SVG Export Plug-In . SVG Version: 6.00 Build 0)  -->
<!DOCTYPE svg PUBLIC "-//W3C//DTD SVG 1.1 Basic//EN" "http://www.w3.org/Graphics/SVG/1.1/DTD/svg11-basic.dtd">
<svg version="1.1" baseProfile="basic" id="Layer_1"
	 xmlns="http://www.w3.org/2000/svg" xmlns:xlink="http://www.w3.org/1999/xlink" x="0px" y="0px" width="2800px" height="2800px"
	 viewBox="0 0 2800 2800" xml:space="preserve">
<g>
	<g>
		<path fill="#6C5FAA" d="M2188.409,697.221l55.891,104.814c-9.725,2.604-20.533,11.08-28.029,23.035
			c-11.156,17.522-10.906,35.971,0.443,41.14c11.461,5.116,29.676-4.982,40.76-22.546c10.586-16.841,6.645-28.65,0.953-40.366
			l-32.648-62.411l80.604-80.143l36.408,71.37c-10.508,1.46-22.924,10.397-31.254,23.677c-11.086,17.538-10.881,36.003,0.541,41.153
			c11.389,5.135,29.605-4.964,40.68-22.524c7.242-11.442,9.613-23.272,7.295-31.548l-61.764-133.375l-0.025-0.052l-8.188-17.403
			L2188.409,697.221z M2296.374,638.517l-81.312,80.587l-10.395-19.437l82.059-81.473L2296.374,638.517z"/>
		<path fill="#27A7DF" d="M2480.899,437.792c-21.484,15.914-18.797,36.998-18.797,36.998s2.877-21.999,33.916-25.509
			c31.047-3.467,31.807,8.724,31.807,8.724l-40.406,46.197c-6.949-1.698-13.934,1.046-14.568,9.378
			c-0.857,11.208,6.021,24.966,14.814,31.728c10.1,7.767,19.916-2.039,20.334-12.284c0.225-5.485-1.639-11.354-4.834-16.394
			c-3.072-4.85-7.377-8.929-12.246-11.183l63.914-64.308C2554.833,441.14,2502.364,421.848,2480.899,437.792z"/>
		<path fill="#3BB881" d="M2280.276,309.477l-11.365-59.748c5.148,0.209,11.723-2.289,17.209-6.993
			c8.119-6.867,10.805-15.922,6.045-20.177c-4.822-4.246-15.266-2.083-23.355,4.815c-7.742,6.622-7.611,12.993-6.611,19.589
			l6.457,35.48l-51.604,26.906l-6.932-40.433c5.357,0.886,12.789-1.592,18.883-6.815c8.088-6.887,10.799-15.943,6-20.201
			c-4.785-4.245-15.229-2.081-23.314,4.819c-5.281,4.49-8.244,9.913-8.369,14.31l9.891,74.604l0.002,0.029l1.354,9.753
			L2280.276,309.477z M2218.56,321.736l52.02-27.013l2.121,11.084l-52.516,27.333L2218.56,321.736z"/>
		<path fill="#E42C2E" d="M2015.263,450.014c0,0,10.398-21.79,43.668-14.911c33.268,6.882,29.934,19.719,29.934,19.719l-8.25,4.906
			l0.244-0.209c0,0-42.973-34.808-70.387,6.368c0,0,33.965-26.659,46.213,8.075l-40.596,24.975
			c-6.576-4.188-14.41-4.149-18.109,4.717c-4.566,11.036-2.229,27.387,4.105,37.396c6.24,9.858,17.268,7.328,23.252-1.2
			c7.482-10.661,3.34-29.902-6.012-38.465l103.166-54.876c0,0-47.75-37.618-75.305-28.391
			C2019.589,427.337,2015.263,450.014,2015.263,450.014z"/>
	</g>
	<g>
		<path opacity="0.2" fill="#7E7F7F" d="M1872.313,2561.398c0,47.357-224.914,85.764-502.375,85.764
			c-277.441,0-502.359-38.406-502.359-85.764c0-47.371,224.918-85.771,502.359-85.771
			C1647.399,2475.627,1872.313,2514.027,1872.313,2561.398z"/>
		<path fill="#FDCFB2" d="M1830.555,1595.146c0.009-0.008,41.063-26.952,36.97-73.39l-21.043,4.553c0,0-4.289-8.955-5.527-16.929
			c-2.578-16.604,3.039-36.795-14.568-33.935c0,0-28.592,7.212-19.06,47.997c0,0,8.501,12.9-6.172,12.681
			c0,0-16.25,3.301-43.822-42.229c0,0-19.687-35.112-32.085-19.275c0,0-9.192,17.748,32.657,73.121c0,0-24.748-1.551-38.954-30.932
			c0,0-7.879-31.894-23.302-15.207c0,0-15.985,14.621,19.32,52.958c1.22,1.47-1.859,5.812-9.3,0
			c-2.656-2.074-4.488-19.659-16.585-13.843c-4.615,2.219-5.556,10.457-5.428,14.654c0.227,7.473,4.632,17.191,8.499,23.439
			C1702.951,1596.253,1756.044,1642.909,1830.555,1595.146z"/>
		<path fill="#E7C0AB" d="M1752.015,1606.95c-42.979-7.382-63.23-41.107-68.323-51.024c0.417,7.395,4.69,16.787,8.464,22.885
			c10.796,17.442,63.889,64.099,138.399,16.335c0.009-0.008,41.063-26.952,36.97-73.39
			C1853.694,1592.069,1787.124,1612.98,1752.015,1606.95z"/>
		<g>
			<g>
				<path fill="#FFFFFF" d="M1484.955,2318.937c20.534-10.365,36.537-34.634,36.537-34.634l30.377,75.979
					c3.717,53.756-63.592,51.857-63.592,51.857l-44.1-87.6C1444.178,2324.539,1464.854,2329.083,1484.955,2318.937z"/>
				<g>
					<path fill="#CFD3D8" d="M1451.52,2325.434l42.834,86.361c0,0,0.878,0.025,2.418-0.01c-5.148,0.445-8.494,0.354-8.494,0.354
						l-44.1-87.6C1444.178,2324.539,1447.109,2325.146,1451.52,2325.434z"/>
				</g>
				<path fill="#CFD3D8" d="M1538.559,2355.873l-24.41-61.941c4.75-5.672,7.344-9.629,7.344-9.629l30.377,75.979
					c3.717,53.756-63.592,51.857-63.592,51.857l-2.578-4.98C1504.537,2405.113,1541.334,2396,1538.559,2355.873z"/>
				<path fill="#FDCFB2" d="M1404.901,1980.182c-33.568,17.986-69.779,34.773-104.127,49.467l143.403,294.891
					c0,0,21.4,4.672,41.431-5.85c20.015-10.59,35.884-34.387,35.884-34.387S1445.059,2085.498,1404.901,1980.182z"/>
				<path fill="#E7C0AB" d="M1408.472,1989.486c-2.329,1.248-11.068,5.115-13.422,6.352
					c36.96,97.467,90.794,224.066,119.099,298.094c4.612-5.533,7.344-9.629,7.344-9.629S1448.629,2094.803,1408.472,1989.486z"/>
				<g>
					<path fill="#3D77BC" d="M1381.113,2463.301c37.126-48.395,68.385-52.67,70.374-58.914c4.872-15.289-3.698-22.738-2.995-27.783
						c0.967-6.959,5.051-11.564,11.193-13.078c16.85-4.18,27.945,18.467,33.709,32.406c1.082,2.646,1.92,5.533,2.533,8.531
						c17.623,0.607,57.223-24.352,55.424-45.561c-0.018-0.027,45.664,21.92,30.465,69.701c0.783,12.1-70.76,108.635-113.111,125.809
						C1403.458,2580.869,1331.374,2528.146,1381.113,2463.301z"/>
					<g>
						<path fill="#8D8D8E" d="M1468.705,2554.412c42.352-17.174,113.895-113.709,113.111-125.809
							c1.469-4.629,2.365-9.02,2.803-13.18c2.05,8.828,1.997,19.176-1.787,31.062c0.787,12.092-70.758,108.631-113.109,125.803
							c-52.464,21.277-109.327-8.65-103.749-54.9C1374.763,2552.949,1423.379,2572.795,1468.705,2554.412z"/>
					</g>
					<g>
						<path fill="#CFD3D8" d="M1397.57,2439.432c4.376-4.643,8.569-8.824,12.524-12.572c4.356-0.02,9.151,0.346,14.066,1.457
							c19.586,4.426,37.172,38.15,37.172,38.15l-13.757,14.102c0,0-9.375-23.531-30.531-36.23
							C1410.772,2440.568,1403.863,2439.395,1397.57,2439.432z"/>
						<path fill="#CFD3D8" d="M1424.867,2417.992c6.672-5.723,12.236-10.027,16.329-13.318c3.226,0.229,6.714,0.814,10.444,1.934
							c19.443,5.887,35.801,28.9,35.801,28.9l-11.773,12.033c0,0-10.529-17.953-31.691-26.789
							C1437.652,2418.119,1430.928,2417.582,1424.867,2417.992z"/>
					</g>
				</g>
			</g>
			<g>
				<path fill="#FFFFFF" d="M1035.75,2368.006c-20.396-4.518-35.168-19.76-37.145-21.881c0.008-0.15-5.871,86.158-5.871,86.158
					s48.674,53.26,85.395,2.195l8.273-71.295C1078.684,2365.65,1053.061,2371.883,1035.75,2368.006z"/>
				<g>
					<path fill="#CFD3D8" d="M998.561,2438.047l3.84-88.18c-2.449-2.236-3.795-3.742-3.795-3.742l-5.859,85.729
						C992.746,2431.854,994.865,2434.504,998.561,2438.047z"/>
				</g>
				<path fill="#CFD3D8" d="M1072.998,2417.395l5.189-51.895c4.916-1.367,8.057-2.273,8.057-2.273l-8.104,70.82
					c-36.721,51.061-85.395-2.193-85.395-2.193S1041.42,2485.107,1072.998,2417.395z"/>
				<path fill="#3D77BC" d="M1079.09,2426.711c19.787,56.873,9.18,76.576-32.086,98.863c-51.24,27.676-99.176,66.195-159.213,42.201
					c-43.699-17.471-50.648-59.154-19.961-95.514c14.975-17.758,48.197-36.045,69.418-42.52c7.229-2.201,13.771-3.066,19.961-3.107
					c3.033-3.734,5.748-7.664,7.332-12.527c2.941-9.051,3.551-18.826,6.707-27.934c1.836-5.297,6.936-7.57,11.943-7.381
					c22.941,0.805,22.121,33.855,16.809,50.113c-0.473,1.453-1.072,2.945-1.65,4.422c14.816-3.629,24.109,14.391,26.088,17.117
					C1061.641,2461.799,1079.09,2426.711,1079.09,2426.711z"/>
				<g>
					<path fill="#8D8D8E" d="M1047.004,2525.574c-51.01,28.199-99.176,66.195-159.213,42.201
						c-23.133-9.25-35.961-25.283-38.365-43.721c-4.355,24.842,8.365,47.748,37.93,59.568
						c60.037,23.998,107.771-16.729,160.432-40.881c37.967-17.412,45.645-42.285,40.922-72.916
						C1089.354,2497.348,1074.176,2510.537,1047.004,2525.574z"/>
				</g>
				<path fill="#FDCFB2" d="M1035.75,2368.006c-20.396-4.518-35.168-19.76-37.145-21.881c0.062-1.205,12.848-343.307,12.848-343.307
					c37.336,12.611,74.068,18.805,114.629,26.557c-11.393,84.412-31.639,283.039-39.68,333.809
					C1080.09,2365.375,1053.844,2372.061,1035.75,2368.006z"/>
				<path fill="#E7C0AB" d="M1126.059,2029.549c-0.025-0.062-0.05-0.129-0.076-0.191c-0.074-0.014-0.147-0.029-0.222-0.043
					c-3.954-0.756-7.921-1.514-11.894-2.277c-11.78,88.053-27.398,284.852-35.678,338.434c3.518-0.838,6.285-1.639,7.932-2.193
					c0.09-0.02,0.188-0.07,0.287-0.133C1094.448,2312.35,1114.665,2114.037,1126.059,2029.549z"/>
				<path fill="#CFD3D8" d="M931.699,2427.057c7.256,1.637,15.752,4.598,22.057,9.949c14.604,12.391,19.658,33.377,19.658,33.377
					l-10.463,6.564c0,0-4.686-16.545-21.02-30.688c-8.994-7.781-20.055-10.635-28.186-11.629
					C920.043,2431.561,926.176,2428.979,931.699,2427.057z"/>
				<path fill="#CFD3D8" d="M902.039,2440.791c7.078,1.809,15.234,4.746,22.156,9.533c16.742,11.572,24.299,38.525,24.299,38.525
					l-11.721,7.35c0,0-5.26-18.553-23.57-34.404c-7.982-6.906-17.42-10.355-25.529-12.047
					C892.264,2446.596,897.115,2443.586,902.039,2440.791z"/>
			</g>
			<g>
				<g>
					<g>
						<path fill="#27A7DF" d="M1020.705,1771.279c116.753,28.473,308.93,2.918,370.713-8.648
							c17.549,65.436,77.134,217.246,96.194,252.521c-62.623,32.873-164.544,62.051-235.32,79.732
							c-13.477-20.711-15.798-33.793-44.421-82.58c-8.291,18.828-28.121,65.945-40.475,82.581
							c-72.776-8.25-155.17-24.021-210.114-47.062C974.238,1984.371,1007.311,1816.834,1020.705,1771.279z"/>
					</g>
					<g>
						<path fill="#0A94C4" d="M1136.629,2091.011c10.374,1.435,20.665,2.729,30.767,3.875
							c12.354-16.636,32.184-63.753,40.475-82.581c-3.988-8.25-8.525-16.91-13.853-25.994
							C1178.327,2009.776,1155.444,2061.865,1136.629,2091.011z"/>
						<path fill="#0A94C4" d="M1391.418,1762.631c-14.023,2.625-34.782,5.971-59.835,9.242
							c132.187,253.018-81.136,320.174-79.291,323.012c70.776-17.682,172.697-46.859,235.32-79.732
							C1468.552,1979.877,1408.967,1828.066,1391.418,1762.631z"/>
					</g>
				</g>
				<g>
					<g>
						<g>
							<path fill="#E42C2E" d="M974.239,1493.076c68.996-35.998,34.636-19.283,49.395-26.35
								c0.748,68.287,1.174,254.877-41.809,346.986c182.663,51.75,422.806-6.084,463.331-10.504
								c-31.619-81.994-37.606-251.992-28.722-315.104c30.717,38.574,57.812,74.031,57.812,74.031
								c55.781-23.1,131.971-86.127,131.971-86.127c-6.469-6.295-109.812-124.89-137.119-150.343
								c-23.975-22.354-75.969-60.707-119.113-70.377c-84.861-27.694-78.885-17.692-131.539-23.32
								c-35.377-3.781-120.592-4.61-196.376,22.746c-94.323,34.047-165.957,95.145-186.749,114.2
								C835.321,1368.915,949.386,1470.6,974.239,1493.076z"/>
							<path fill="#C13035" d="M1463.528,1521.43c0,0-16.377,5.25-47.094-33.324c30.717,38.574,57.812,74.031,57.812,74.031
								c55.781-23.1,131.971-86.127,131.971-86.127S1513.528,1511.43,1463.528,1521.43z"/>
							<path fill="#C13035" d="M855.235,1351.702c-8.757,7.195-15.49,13.158-19.914,17.213c0,0,114.064,101.685,138.918,124.161
								C953.792,1474.586,880.565,1383.448,855.235,1351.702z"/>
						</g>
						<path fill="#C13035" d="M1420.22,1687.404c-2.456-20.664-4.273-41.814-5.505-62.475
							c-98.045,2.334-271.424-0.666-394.331-11.396c-1.747,27.168-4.343,55.238-8.157,82.361
							C1151.545,1711.527,1315.674,1693.783,1420.22,1687.404z"/>
						<path fill="#C13035" d="M1023.645,1467.719c0.198,18.529,0.357,45.41-0.339,76.611
							c120.817,19.648,288.521,20.818,389.404,18.6c-0.111-30.553,1.211-56.969,3.725-74.824
							C1320.3,1489.828,1023.942,1467.213,1023.645,1467.719z"/>
						<path fill="#C13035" d="M1428.033,1739.117c-191.454,30.041-322.492,22.729-425.046,8.635
							c-5.507,24.691-12.44,47.271-21.162,65.961c182.663,51.75,422.806-6.084,463.331-10.504
							C1438.27,1785.35,1432.599,1763.312,1428.033,1739.117z"/>
					</g>
					<g>
						<path fill="#FFFFFF" d="M1340.589,1237.105c0,0,34.916,13.684,49.299,33.157c0,0-54.171,94.526-81.471,134.788
							c0,0-35.189-45.613-62.479-71.737C1245.938,1333.312,1316.778,1283.372,1340.589,1237.105z"/>
						<path fill="#C13035" d="M1304.435,1378.896c0,0-31.207-19.459-58.496-45.583c27.289,26.124,62.479,71.737,62.479,71.737
							c27.3-40.262,81.471-134.788,81.471-134.788S1331.734,1338.633,1304.435,1378.896z"/>
					</g>
					<g>
						<path fill="#FFFFFF" d="M1181.72,1216.12c0,0-17.534,2.021-51.832,14.049c0,0,29.319,119.134,37.064,163.236
							c0,0,30.979-40.666,78.986-60.093C1245.938,1333.312,1196.757,1254.594,1181.72,1216.12z"/>
						<path fill="#C13035" d="M1171.931,1363.622c-7.745-44.103-42.043-133.453-42.043-133.453s29.319,119.134,37.064,163.236
							c0,0,30.979-40.666,78.986-60.093C1197.931,1352.739,1171.931,1363.622,1171.931,1363.622z"/>
					</g>
				</g>
			</g>
		</g>
		<g>
			<path fill="#FDCFB2" d="M1579.75,1486.516c-16.999,13.344-53.752,40.178-77.799,54.061
				c5.769,19.027,147.352,176.191,332.018,68.291l-12.21-66.297C1821.759,1542.57,1718.717,1658.949,1579.75,1486.516z"/>
			<path fill="#E7C0AB" d="M1833.969,1608.867c-168.928,72.611-286.495-20.873-322.301-74.168c-3.895,2.236,1.578-0.875-9.717,5.877
				C1507.72,1559.604,1649.303,1716.768,1833.969,1608.867z"/>
		</g>
		<g>
			<polygon fill="#773718" points="873.124,1461.877 873.124,1461.877 873.124,1461.877 			"/>
		</g>
		<g>
			<g>
				<path fill="#FDCFB2" d="M1189.06,1232.549c19.096,39.896,52.285,93.544,56.879,100.764c0,0,54.623-38.936,83.689-78.66
					c-17.066-0.251-34.285-1.367-51.607-3.4C1247.281,1247.64,1217.556,1241.31,1189.06,1232.549z"/>
			</g>
			<path fill="#E7C0AB" d="M1278.021,1251.252c-27.598-3.243-63.152-11.288-88.961-18.703c3.977,7.623,10.127,20.56,14.742,28.7
				c22.113,5.35,81.021,8.626,125.826-6.597C1315.799,1254.177,1292.01,1252.894,1278.021,1251.252z"/>
		</g>
		<g>
			<path fill="#FDCFB2" d="M1398.292,306.379c-267.732-31.432-510.826,154.566-542.855,415.475
				c-32.105,260.928,158.951,497.952,426.584,529.398c267.744,31.428,510.771-154.561,542.867-415.557
				C1857.001,574.821,1665.995,337.774,1398.292,306.379z"/>
			<path fill="#FDCFB2" d="M919.339,816.33c7.352,45.1-17.559,85.787-55.527,91.03c-38.073,5.181-74.768-27.039-82.115-72.1
				c-7.35-45.071,17.478-85.732,55.533-90.987C875.255,739.054,911.995,771.344,919.339,816.33z"/>
			<g>
				<path fill="#B55D27" d="M1565.495,832.222c-5.531,2.551-13.615-23.353-36.617-32.691c-23.924-7.983-48.297,3.572-50.074-1.237
					c-2.746-2.181,19.721-24.481,55.535-14.185C1569.128,800.184,1568.216,833.321,1565.495,832.222z"/>
			</g>
			<g>
				<path fill="#B55D27" d="M1184.015,697.478c-5.5,2.718-14.084-23.085-37.109-32.191c-24.082-7.663-48.381,4.379-50.031-0.447
					c-2.971-2.109,19.24-24.813,55.232-15.042C1187.22,665.437,1186.626,698.617,1184.015,697.478z"/>
			</g>
			<path opacity="0.5" fill="#F7A399" d="M1452.126,961.701c-6.293,17.266,15.205,41.108,47.979,53.113
				c32.895,11.992,64.654,7.613,71-9.706c6.258-17.352-15.141-41.138-48.045-53.151
				C1490.239,939.938,1458.546,944.321,1452.126,961.701z"/>
			<path opacity="0.5" fill="#F7A399" d="M1001.206,816.041c-6.025,16.383,14.344,38.925,45.459,50.217
				c31.232,11.283,61.43,7.044,67.502-9.383c5.998-16.463-14.279-38.955-45.52-50.253
				C1037.487,795.316,1007.353,799.552,1001.206,816.041z"/>
			<path fill="#9F4C23" d="M857.054,841.047c-12.539-26.417,18.504-329.624,469.996-209.012
				c260.162,69.503,398.549-55.616,398.549-55.616c-72.695,84.558-29.746,185.745-15.881,251.231
				c12.082,57.031,4.986,135.537,4.986,135.537c51.096,7.819,71.166-0.674,71.166-0.674c223.311-283.999,9.893-477,9.893-477
				c-3.346-152.683-229.988-242.139-362.607-256.809c-343.652-38.005-478.689,129.355-505.371,146.67
				c42.348-9.862,57.449-17.018,106.434-16.944c-213.988,68.274-198.174,223.433-197.875,224.881
				c4.961-33.822,66.514-63.328,66.514-63.328S771.077,663.125,857.054,841.047z"/>
			<path fill="#6F320E" d="M1347.497,604.041c260.168,69.499,398.537-55.623,398.537-55.623
				c-72.697,84.558-29.752,185.736-15.887,251.221c9.223,43.553-1.148,119.451-14.822,154.841c-0.213-0.019,0.203,0.039,0,0
				c0,0,5.109-70.246-6.969-127.279c-13.871-65.483-56.814-166.671,15.883-251.22c0,0-138.383,125.117-398.543,55.622
				c-230.621-61.606-351.531-12.638-412.988,53.537C965.251,606.671,1085.681,534.104,1347.497,604.041z"/>
			<path fill="#B55D27" d="M1362.298,497.867c242.588,59.254,363.162-59.923,363.162-59.923
				c-6.188,7.963-108.332,161.426-354.311,102.659c-171.363-40.938-262.824-80.27-329.004-17.148
				C1081.247,464.646,1142.771,444.244,1362.298,497.867z"/>
			<path fill="#6F320E" d="M1431.782,413.722c188.795,65.34,251.693-10.859,251.693-10.859
				c-4.383,7.023-55.762,121.676-247.168,56.633c-133.326-45.313-201.502-71.328-249.373-16.506
				C1214.233,390.877,1260.901,354.607,1431.782,413.722z"/>
			<path fill="#E1AE88" d="M813.29,829.472c-2.617-19.906,9.561-37.935,27.178-40.257c4.352-0.567,8.619-0.127,12.621,1.15
				c0.127,23.169,1.936,46.043,5.248,68.513c-2.604,1.204-5.385,2.073-8.332,2.458C832.339,863.636,815.915,849.398,813.29,829.472z
				"/>
			<path fill="#6F320E" d="M902.856,519.985c0,0-62.596,31.231-66.514,63.328c-0.09-0.395-1.35-12.64,1.412-31.566
				c0.002,0.011-0.002,0.019-0.002,0.019c7.191-49.28,41.814-143.994,196.465-193.333c-48.984-0.074-64.086,7.082-106.434,16.944
				c14.57-9.456,58.289-63.875,154.674-104.239c-60.625,32.508-90.836,72.146-102.428,79.678
				c42.338-9.863,83.533-9.721,132.514-9.637c-128.516,35.285-233.227,87.74-254.113,192.431
				c18.607-22.404,78.84-49.209,78.84-49.209s-125.67,130.859-73.996,290.374c-9.811,32.842-9.549,59.27-6.221,66.273
				C771.077,663.125,902.856,519.985,902.856,519.985z"/>
			<path fill="#7E2818" d="M1513.927,898.542c-7.781,17.409-23.314,27.434-34.59,22.41c-11.334-5.113-14.219-23.299-6.412-40.721
				c7.77-17.4,23.223-27.378,34.58-22.367C1518.821,862.873,1521.671,881.144,1513.927,898.542z"/>
			<path fill="#7E2818" d="M1139.022,771.726c-7.283,17.561-22.516,28.009-33.967,23.22c-11.467-4.756-14.773-22.874-7.453-40.501
				c7.326-17.599,22.521-28.044,33.982-23.256C1143.022,735.943,1146.399,754.04,1139.022,771.726z"/>
			<g>
				<path fill="#FDCFB2" d="M1818.405,1052.701c-35.979,24.68-82.734,18.875-104.578-12.922
					c-21.883-31.814-10.521-77.542,25.377-102.229c35.898-24.664,82.695-18.9,104.535,12.87
					C1865.653,982.228,1854.294,1028.004,1818.405,1052.701z"/>
				<g>
					<path fill="#E1AE88" d="M1803.521,973.951c10.352,16.228,3.895,38.864-14.436,50.562c-17.273,10.982-38.828,8.352-49.953-5.489
						c10.518-19.22,20.068-39.078,28.582-59.529C1781.918,957.104,1796.059,962.248,1803.521,973.951z"/>
				</g>
			</g>
			<g>
				<path fill="#781C16" d="M1203.042,978.627c38.682,10.3,76.229,24.53,111.457,43.598c13.271,7.648,26.107,15.982,38.506,24.938
					c-44.867,67.194-97.738,106.18-147.763,85.456c-55.118-22.862-67.192-107.052-68.521-166.781
					C1159.005,969.093,1181.149,973.262,1203.042,978.627z"/>
				<path fill="#F26A67" d="M1205.242,1132.618c24.274,9.981,49.237,5.938,73.615-8.364c-28.651-79.52-88.786-52.292-116.497-34.155
					C1172.415,1109.252,1186.208,1124.627,1205.242,1132.618z"/>
				<path fill="#FFFFFF" d="M1203.042,978.627c38.682,10.3,76.229,24.53,111.457,43.598c5.68,3.274,11.273,6.687,16.797,10.2
					c-41.268,37.727-142.975-1.466-164.943-27.562c-2.924-3.439-5.572-28.238-6.941-35.377
					C1174.042,972.067,1188.596,975.086,1203.042,978.627z"/>
			</g>
			<path fill="#DEAA85" d="M1238.585,900.927c0.596,23.538,24.66,33.989,47.621,38.521c-17.906,5.952-43.85,3.721-60.676-15.353
				c-28.348-32.136,20.666-77.333,52.666-79.333C1270.056,847.579,1237.995,877.544,1238.585,900.927z"/>
		</g>
		<g>
			<g>
				<path fill="#F9A027" d="M1070.28,1456.518c0,0-79.752,12.451-147.559-11.939c-67.819-24.391-215.759-48.475-320.436,78.293
					c-104.686,126.771-15.951,355.393,26.988,419.033c42.925,63.656,228.151,181.967,389.146,55.611
					c161.016-126.377,141.463-127.83,245.26-132.885c103.793-5.064,211.652,35.518,277.066-102.248
					c65.412-137.801-31.57-281.021-49.689-302.777c-48.801-58.603-138.961-145.129-251.973-83.041
					C1126.071,1438.664,1070.28,1456.518,1070.28,1456.518z"/>
				<path fill="#EC8A23" d="M1296.56,1791.338c-103.801,5.057-84.246,6.51-245.256,132.885
					c-161.001,126.359-387.65,34.105-441.743-172.967c-15.823-60.572-23.958-127.787-10.765-189.686
					c3.941-18.492,10.158-37.211,18.078-55.115c-4.943,5.17-9.812,10.633-14.588,16.416
					c-104.686,126.771-15.951,355.393,26.988,419.033c42.925,63.656,228.151,181.967,389.146,55.611
					c161.016-126.377,141.463-127.83,245.26-132.885c96.307-4.699,196.111,29.895,262.264-75.139
					C1451.366,1844.246,1377.345,1787.398,1296.56,1791.338z"/>
				<path fill="#8A4A20" d="M1540.747,1762.383c-65.414,137.766-173.273,97.184-277.066,102.248
					c-103.797,5.055-84.244,6.508-245.26,132.885c-160.995,126.355-346.222,8.045-389.146-55.611
					c-25.569-37.902-67.377-134.344-74.902-232.922c-11.447,117.627,82.498,583.613,494.742,376.139
					c110.014-55.369,110.379-152.557,214.174-157.617c103.795-5.049,211.684,35.537,277.092-102.246
					c21.291-44.879,25.41-90.43,20.695-132.176C1558.056,1715.945,1551.706,1739.236,1540.747,1762.383z"/>
				<path fill="#452300" d="M910.183,1775c5.469,16.168-7.16,34.811-28.201,41.652l0,0c-21.023,6.82-42.491-0.768-48.001-16.926
					l-53.7-158.633c-5.486-16.176,7.14-34.816,28.189-41.646l0,0c21.004-6.832,42.516,0.758,47.993,16.902L910.183,1775z"/>
				<path fill="#58595B" d="M877.164,1754.73c3.61,10.854,4.538,20.234,2.074,20.963l0,0c-2.462,0.719-7.386-7.506-11.001-18.359
					l-35.426-106.496c-3.613-10.861-4.541-20.242-2.076-20.959l0,0c2.459-0.73,7.391,7.5,10.996,18.34L877.164,1754.73z"/>
			</g>
			<g>
				<path fill="#8B5E3C" d="M1977.966,1418.848c-7.219,1.248-12.676,2.09-14.977,2.688c6.039,31.305,14.428,65.314,20.738,96.561
					c0.875-0.045,5.945-1.75,13.59-4.027C1991.358,1483.156,1983.804,1449.943,1977.966,1418.848z"/>
			</g>
			<g>
				<path fill="#452300" d="M1400.392,1611.494c2.02,71.959-57.021,132.061-131.916,134.252
					c-74.879,2.172-137.24-54.391-139.256-126.352c-2.041-71.973,57.035-132.064,131.914-134.258
					C1336.011,1482.967,1398.372,1539.529,1400.392,1611.494z"/>
				<path fill="#8B5E3C" d="M1389.173,1611.82c1.854,66.006-52.303,121.135-121,123.145
					c-68.684,1.992-125.887-49.891-127.736-115.896c-1.871-66.018,52.316-121.139,121-123.15
					C1330.119,1493.928,1387.321,1545.811,1389.173,1611.82z"/>
				<g>
					<path fill="#452300" d="M1400.392,1611.494c0.453,16.064-2.148,31.533-7.281,45.908
						c71.434-16.979,590.932-139.322,590.617-139.307c-6.223-30.816-14.711-65.58-20.738-96.561l-597.955,105.766
						C1386.216,1549.539,1399.478,1578.939,1400.392,1611.494z"/>
				</g>
				<path d="M1997.224,1514.096c17.438-5.199,48.398-13.418,73.604-11.605c2.713,0.195,5.486,0.311,8.295,0.379l153.924-31.322
					c7.334-28.387,1.428-86.848-28.477-113.886c-44.77,10.645-98.76,23.479-153.445,36.48c-16.99,14.152-52.381,21.11-73.158,24.706
					c5.838,31.096,13.393,64.309,19.352,95.221C1997.284,1514.078,1997.253,1514.088,1997.224,1514.096z"/>
				<path fill="#BEBEBF" d="M2100.417,1498.533c3.541,9.689,6.758,16.037,8.324,15.85c1.469-0.178,0.887-8.156-0.836-17.373
					L2100.417,1498.533z"/>
				<path fill="#BEBEBF" d="M2152.181,1487.98c3.539,9.688,6.76,16.037,8.324,15.848c1.467-0.176,0.887-8.154-0.834-17.371
					L2152.181,1487.98z"/>
				<path fill="#BEBEBF" d="M2200.218,1478.217c3.537,9.689,6.756,16.037,8.322,15.848c1.465-0.178,0.885-8.156-0.836-17.371
					L2200.218,1478.217z"/>
				<path fill="#BEBEBF" d="M2077.96,1387.761c-3.521-9.611-6.705-15.914-8.268-15.763c-1.615,0.171-1.08,7.183,1.035,17.482
					C2073.142,1388.906,2075.554,1388.333,2077.96,1387.761z"/>
				<path fill="#BEBEBF" d="M2127.47,1375.857c-3.521-9.612-6.707-15.912-8.268-15.762c-1.615,0.171-1.082,7.182,1.037,17.48
					C2122.653,1377.003,2125.063,1376.431,2127.47,1375.857z"/>
				<path fill="#BEBEBF" d="M2175.792,1364.499c-3.523-9.611-6.707-15.913-8.27-15.761c-1.617,0.17-1.082,7.181,1.037,17.481
					C2170.976,1365.646,2173.382,1365.073,2175.792,1364.499z"/>
				<path fill="#FBB040" d="M1365.843,1612.498c1.512,53.625-42.49,98.414-98.303,100.047
					c-55.797,1.619-102.27-40.533-103.775-94.158c-1.521-53.631,42.504-98.412,98.305-100.047
					C1317.868,1516.723,1364.341,1558.875,1365.843,1612.498z"/>
				<path d="M1357.37,1612.744c1.383,49.133-38.926,90.164-90.059,91.662c-51.123,1.482-93.695-37.139-95.076-86.264
					c-1.393-49.141,38.943-90.164,90.061-91.66C1313.419,1524.998,1355.995,1563.613,1357.37,1612.744z"/>
				<path fill="#414042" d="M2172.747,1501.686c0.682,3.422-3.777,7.193-9.963,8.426c-6.18,1.234-11.744-0.539-12.426-3.959
					c-0.684-3.418,3.777-7.191,9.957-8.426C2166.497,1496.492,2172.063,1498.266,2172.747,1501.686z"/>
				<path fill="#414042" d="M2220.78,1491.924c0.684,3.42-3.777,7.191-9.959,8.426c-6.184,1.232-11.746-0.541-12.43-3.959
					c-0.682-3.42,3.777-7.195,9.959-8.428C2214.532,1486.732,2220.097,1488.502,2220.78,1491.924z"/>
				<path fill="#414042" d="M2130.351,1357.997c0.684,3.422-3.775,7.193-9.959,8.428c-6.184,1.23-11.746-0.541-12.43-3.959
					c-0.684-3.422,3.777-7.193,9.959-8.428C2124.103,1352.805,2129.667,1354.577,2130.351,1357.997z"/>
				<path fill="#414042" d="M2178.671,1346.64c0.684,3.421-3.777,7.193-9.959,8.425c-6.186,1.233-11.746-0.54-12.428-3.958
					c-0.684-3.419,3.775-7.194,9.957-8.428C2172.423,1341.446,2177.989,1343.22,2178.671,1346.64z"/>
			</g>
			<g>
				<path fill="#E6E7E8" d="M2143.778,1397.48c0.195,6.325-5.174,11.633-11.926,11.835c-6.775,0.201-12.395-4.789-12.588-11.129
					c-0.17-6.35,5.172-11.656,11.951-11.845C2137.948,1386.139,2143.61,1391.128,2143.778,1397.48z"/>
				<path fill="#E6E7E8" d="M2092.968,1412.607c0.195,6.326-5.172,11.633-11.928,11.834c-6.775,0.201-12.393-4.789-12.586-11.127
					c-0.172-6.351,5.174-11.657,11.947-11.846C2087.14,1401.265,2092.8,1406.255,2092.968,1412.607z"/>
				<path fill="#E6E7E8" d="M2192.181,1385.919c0.199,6.351-5.174,11.643-11.928,11.848c-6.781,0.2-12.393-4.777-12.592-11.127
					c-0.168-6.35,5.154-11.645,11.934-11.85C2186.353,1374.602,2192.013,1379.58,2192.181,1385.919z"/>
			</g>
			<g>
				<path fill="#E6E7E8" d="M2159.757,1456.924c-0.396,6.328-6.172,11.191-12.932,10.859c-6.785-0.34-11.955-5.738-11.545-12.086
					c0.389-6.342,6.174-11.203,12.953-10.861C2154.995,1445.168,2160.138,1450.578,2159.757,1456.924z"/>
				<path fill="#E6E7E8" d="M2107.415,1467.262c-0.396,6.332-6.17,11.195-12.934,10.861c-6.781-0.34-11.953-5.74-11.543-12.084
					c0.389-6.348,6.176-11.209,12.955-10.865C2102.655,1455.504,2107.796,1460.918,2107.415,1467.262z"/>
				<path fill="#E6E7E8" d="M2208.726,1447.354c-0.359,6.342-6.145,11.207-12.93,10.861c-6.756-0.32-11.922-5.738-11.539-12.057
					c0.412-6.357,6.195-11.209,12.953-10.889C2203.976,1435.613,2209.136,1441.01,2208.726,1447.354z"/>
			</g>
			<path fill="#AFAEAF" d="M2078.603,1410.901l-0.688-3.645l-113.516,21.374c0.246,1.209,0.492,2.418,0.742,3.635L2078.603,1410.901
				z"/>
			<path fill="#AFAEAF" d="M2131.083,1401.958l-0.719-3.638l-162.574,46.537c0.258,1.205,0.521,2.416,0.785,3.625L2131.083,1401.958
				z"/>
			<path fill="#AFAEAF" d="M2187.44,1387.533l-0.752-3.632l-215.904,74.694c0.264,1.205,0.533,2.412,0.799,3.621L2187.44,1387.533z"
				/>
			<path fill="#AFAEAF" d="M2196.013,1443.525l-0.789-3.623l-221.068,33.889c0.271,1.209,0.539,2.414,0.807,3.621L2196.013,1443.525
				z"/>
			<path fill="#AFAEAF" d="M2148.329,1459.928l-0.814-3.619l-170.164,31.873c0.268,1.211,0.531,2.414,0.797,3.623L2148.329,1459.928
				z"/>
			<path fill="#AFAEAF" d="M2095.524,1470.484l-0.85-3.611l-114.094,36.146c0.258,1.213,0.52,2.426,0.775,3.627L2095.524,1470.484z"
				/>
			<path fill="#AFAEAF" d="M812.399,1646.691l0.686,3.646l1152.043-218.07c-0.248-1.213-0.492-2.424-0.738-3.633L812.399,1646.691z"
				/>
			<path fill="#AFAEAF" d="M822.015,1671.252l0.717,3.641l1145.818-226.406c-0.26-1.209-0.523-2.418-0.781-3.625L822.015,1671.252z"
				/>
			<path fill="#AFAEAF" d="M827.079,1695.65l0.752,3.631l1143.73-237.059c-0.268-1.211-0.535-2.416-0.799-3.623L827.079,1695.65z"/>
			<path fill="#AFAEAF" d="M836.703,1720.471l0.788,3.625l1137.457-246.68c-0.27-1.207-0.539-2.414-0.807-3.623L836.703,1720.471z"
				/>
			<path fill="#AFAEAF" d="M844.911,1742.766l0.814,3.621l1132.416-254.582c-0.266-1.207-0.531-2.412-0.799-3.623L844.911,1742.766z
				"/>
			<path fill="#AFAEAF" d="M851.304,1767.748l0.848,3.611l1129.203-264.711c-0.256-1.205-0.516-2.416-0.775-3.627L851.304,1767.748z
				"/>
			<g>
				<path fill="#E6E7E8" d="M804.423,1649.305c-0.434-4.598,2.939-8.674,7.532-9.107c4.596-0.434,8.671,2.939,9.106,7.531
					c0.434,4.594-2.938,8.674-7.533,9.105C808.935,1657.27,804.857,1653.898,804.423,1649.305z"/>
				<path fill="#E6E7E8" d="M811.497,1674.635c-0.435-4.596,2.938-8.674,7.533-9.105c4.594-0.438,8.671,2.938,9.105,7.531
					c0.434,4.592-2.939,8.672-7.533,9.107C816.009,1682.6,811.931,1679.229,811.497,1674.635z"/>
				<path fill="#E6E7E8" d="M819.136,1698.252c-0.435-4.596,2.938-8.67,7.531-9.104c4.596-0.438,8.674,2.938,9.107,7.531
					s-2.939,8.67-7.533,9.105C823.646,1706.221,819.57,1702.848,819.136,1698.252z"/>
				<circle fill="#E6E7E8" cx="834.528" cy="1722.796" r="8.356"/>
				<path fill="#E6E7E8" d="M833.813,1746.49c-0.433-4.594,2.938-8.67,7.531-9.105c4.597-0.434,8.672,2.941,9.107,7.531
					c0.432,4.598-2.939,8.672-7.533,9.109C838.325,1754.461,834.247,1751.086,833.813,1746.49z"/>
				<path fill="#E6E7E8" d="M841.858,1771.773c-0.436-4.594,2.938-8.672,7.531-9.104c4.596-0.438,8.672,2.938,9.105,7.531
					c0.434,4.596-2.938,8.674-7.533,9.107C846.368,1779.744,842.292,1776.369,841.858,1771.773z"/>
			</g>
			<g>
				<path fill="#414042" d="M2120.981,1512.24c0.68,3.42-3.775,7.193-9.961,8.426c-6.182,1.236-11.748-0.539-12.428-3.959
					c-0.684-3.42,3.777-7.193,9.959-8.426C2114.733,1507.047,2120.3,1508.818,2120.981,1512.24z"/>
				<path fill="#414042" d="M2080.841,1369.899c0.684,3.421-3.775,7.193-9.959,8.426c-6.184,1.233-11.748-0.538-12.432-3.957
					c-0.682-3.42,3.779-7.193,9.963-8.428C2074.593,1364.708,2080.161,1366.48,2080.841,1369.899z"/>
			</g>
		</g>
		<g>
			<g>
				<path fill="#FDCFB2" d="M1182.528,1593.693c0,0,15.469-5.248,26.104-15.916c7.855-7.879,19.951-27.619,1.896-27.619
					c-9.211,0-23.119,12.219-56.916,12.219c-28.074,0-57.842,27.193-72.084,44.885c0,0-46.467-49.863-93-101
					c-40.263-44.246-90-88-115.719-96.999c-46.281-17-213.281,17.999,183.586,250.64c0,0,91.633,93.359,110.592,39.391
					c0,0,34.246,20.969,42.541-22.945c0,0,47.92-5.928,19-41.586c0,0,85.192-11.51,57.5-43
					C1280.112,1585.035,1222.138,1619.785,1182.528,1593.693z"/>
				<path fill="#FDCFB2" d="M895.382,1422.496c-27.178-24.262-52.041-46.431-58.449-52.146
					c-18.928,18.691-35.451,39.798-37.824,64.069C808.31,1409.837,887.155,1418.783,895.382,1422.496z"/>
				<g>
					<path fill="#E7C0AB" d="M872.81,1409.263c11.719,4.165,24.705,14.009,25.053,14.165c-7.944-7.092-24.854-20.789-32-27.165
						c-40.631-2.826-56.435,14.381-62.766,26.956C816.382,1403.99,854.274,1402.454,872.81,1409.263z"/>
				</g>
			</g>
			<g>
				<path fill="#E7C0AB" d="M1203.112,1572.258c-10.635,10.668-28.334,17.004-28.334,17.004c2.674,1.762,4.932,3.193,7.75,4.432
					c4.875-1.744,16.812-6.807,26.104-15.916c7.296-7.152,17.982-24.459,5.72-27.229
					C1215.101,1557.014,1208.216,1567.137,1203.112,1572.258z"/>
				<path fill="#E7C0AB" d="M1286.028,1591.762c-0.438-0.498-1.166-0.764-2.146-0.848c15.814,27.963-60.873,38.328-60.873,38.328
					c28.92,35.656-19,41.586-19,41.586c-8.297,43.914-45.98,20.783-45.98,20.783c-10.174,16.891-23.668,20.576-37.638,17.381
					c20.13,9.928,39.078,11.703,46.597-9.699c0,0,34.246,20.969,42.541-22.945c0,0,49.92-5.928,21-41.586
					C1230.528,1634.762,1313.721,1623.252,1286.028,1591.762z"/>
			</g>
		</g>
		<g>
			<path fill="#FDCFB2" d="M1874.313,1613.068c0.01-0.006,44.154-28.979,39.754-78.914l-22.627,4.898c0,0-4.613-9.631-5.943-18.203
				c-2.773-17.854,3.268-39.566-15.666-36.49c0,0-30.742,7.756-20.494,51.609c0,0,9.141,13.873-6.637,13.635
				c0,0-17.473,3.551-47.119-45.406c0,0-21.168-37.754-34.5-20.727c0,0-9.885,19.086,35.115,78.625c0,0-26.611-1.666-41.887-33.258
				c0,0-8.473-34.295-25.055-16.354c0,0-17.189,15.723,20.773,56.945c1.312,1.58-2,6.25-10,0
				c-2.855-2.232-4.826-21.139-17.832-14.885c-4.963,2.385-5.975,11.242-5.838,15.758c0.244,8.035,4.98,18.482,9.139,25.201
				C1737.106,1614.262,1794.196,1664.43,1874.313,1613.068z"/>
			<path fill="#E7C0AB" d="M1789.862,1625.764c-46.213-7.939-67.988-44.203-73.465-54.865c0.447,7.951,5.043,18.051,9.1,24.605
				c11.609,18.758,68.699,68.926,148.816,17.564c0.01-0.006,44.154-28.979,39.754-78.914
				C1899.196,1609.764,1827.614,1632.248,1789.862,1625.764z"/>
		</g>
	</g>
</g>
</svg>
