<?xml version="1.0" encoding="utf-8"?>
<!-- Generator: Adobe Illustrator 16.0.0, SVG Export Plug-In . SVG Version: 6.00 Build 0)  -->
<!DOCTYPE svg PUBLIC "-//W3C//DTD SVG 1.1 Basic//EN" "http://www.w3.org/Graphics/SVG/1.1/DTD/svg11-basic.dtd">
<svg version="1.1" baseProfile="basic" xmlns="http://www.w3.org/2000/svg" xmlns:xlink="http://www.w3.org/1999/xlink" x="0px"
	 y="0px" width="5669.29px" height="5669.29px" viewBox="0 0 5669.29 5669.29" xml:space="preserve">
<g id="Layer_2">
	<line fill="#B6BFBF" x1="0" y1="0" x2="5669.291" y2="0"/>
	<line fill="#B6BFBF" x1="5669.291" y1="5669.291" x2="0" y2="5669.291"/>
	<line fill="#62524B" x1="0" y1="0" x2="5669.29" y2="0"/>
</g>
<g id="Layer_1">
	<g>
		<g>
			<g>
				<path opacity="0.15" fill="#FEFFF7" d="M1382.211,4570.555H475.208c-62.585,0-113.319-45.572-113.319-101.788v-930.068
					c0-56.216,50.734-101.787,113.319-101.787h907.003c62.585,0,113.319,45.571,113.319,101.787v930.068
					C1495.53,4524.982,1444.796,4570.555,1382.211,4570.555z"/>
				<g>
					<path fill="#62524B" d="M1372.872,4572.345c-15.557-293.809-60.337-526.021-444.161-526.021
						c-373.272,0-428.608,232.212-444.164,526.021H1372.872z"/>
					<g>
						<path fill="#F0DEC2" d="M1151.611,3930.492c0-30.711-24.024-55.803-54.304-57.527
							c-23.09-99.974-104.959-173.883-202.417-173.883c-97.63,0-179.611,74.174-202.535,174.417
							c-27.772,4.13-49.078,28.069-49.078,56.993c0,28.923,21.306,52.862,49.078,56.992
							c22.924,100.244,104.905,174.418,202.535,174.418c97.457,0,179.327-73.91,202.417-173.884
							C1127.587,3986.295,1151.611,3961.203,1151.611,3930.492z"/>
						<path fill="#EFF2E0" d="M921.873,3851.773c2.794-11.887,27.874-8.824,75.853-4.873c39.548,3.259,72.586,15.174,65.729,38.175
							c-6.882,23.087-39.502,20.384-75.853,4.87C943.489,3871.12,919.077,3863.659,921.873,3851.773z"/>
						<path fill="#EFF2E0" d="M864.336,3851.773c-2.795-11.887-27.874-8.824-75.853-4.873
							c-39.547,3.259-72.586,15.174-65.729,38.175c6.881,23.087,39.503,20.384,75.853,4.87
							C842.722,3871.12,867.132,3863.659,864.336,3851.773z"/>
						<g>
							<path fill="#FEFFFA" d="M1046.269,3940.214c9.851,5.64-22.666,16.841-50.623,16.841c-27.958,0-59.928-10.702-50.622-16.841
								c15.091-9.953,41.086-16.854,50.622-16.84C1005.459,3923.391,1020.699,3925.578,1046.269,3940.214z"/>
							<path fill="#4A4741" d="M995.724,3955.986c-11.586,0-21.011-7.075-21.011-15.772c0-8.698,9.425-15.772,21.011-15.772
								s21.011,7.074,21.011,15.772C1016.734,3948.911,1007.31,3955.986,995.724,3955.986z"/>
						</g>
						<g>
							<path fill="#FEFFFA" d="M744.925,3940.214c-9.851,5.64,22.665,16.841,50.623,16.841c27.957,0,59.928-10.702,50.621-16.841
								c-15.089-9.953-41.085-16.854-50.621-16.84C785.734,3923.391,770.494,3925.578,744.925,3940.214z"/>
							<path fill="#4A4741" d="M795.47,3955.986c11.586,0,21.011-7.075,21.011-15.772c0-8.698-9.425-15.772-21.011-15.772
								c-11.585,0-21.012,7.074-21.012,15.772C774.458,3948.911,783.885,3955.986,795.47,3955.986z"/>
						</g>
						<path fill="#4A4741" d="M873.181,3992.47h38.937c2.907,0,5.505-1.148,7.313-3.233c1.79-2.062,2.563-4.758,2.183-7.603
							l-10.262-120.87l4.254,121.545l0.013,0.085c0.157,1.116-0.109,2.14-0.751,2.881c-0.645,0.741-1.619,1.15-2.75,1.15
							L873.181,3992.47z"/>
						<path fill="#F5F7E7" d="M1297.073,4304.631c-3.056-8.777-20.188-22.131-29.466-22.667c-6.597-0.38-22.667,13.6-22.667,13.6
							s22.685,8.95,22.667,15.866c-0.023,8.959-20.585,21.585-29.466,20.4c-13.951-1.861-36.122-28.99-36.265-43.065
							c-0.194-18.938,49.023-40.048,47.599-58.932c-1.908-25.266-69.578-43.591-74.798-68.382
							c-5.212-24.749,50.011-69.018,40.797-92.57c-6.34-16.213-56.117-12.166-63.863-27.756
							c-9.795-19.713,20.261-63.548,20.8-85.551c0.675-27.59-2.775-87.514-20.8-108.41c-11.766-13.64-68.004-23.817-68.004-23.817
							s22.049,123.017,10.888,162.058c-9.82,34.354-55.393,93.932-83.5,115.989c-24.628,19.327-84.808,46.185-116.104,46.909
							c-31.902,0.737-94.957-23.08-120.433-42.297c-25.623-19.327-62.829-74.763-74.18-104.784
							c-12.639-33.427-21.548-154.058-21.548-154.058s-43.325,45.075-50.946,65.854c-8.935,24.352-11.153,72.883-3.733,97.737
							c5.381,18.018,42.534,63.876,44.972,82.522c2.65,20.272-26.318,57.186-25.745,77.623
							c0.494,17.661,27.878,48.167,25.968,65.731c-1.258,11.55-14.634,35.986-25.968,38.533
							c-7.585,1.704-22.122-9.612-26.736-15.866c-3.805-5.159-5.99-24.934-5.99-24.934s-16.478,31.753-16.559,45.332
							c-0.098,16.294,18.853,34.297,33.792,40.799c14.714,6.404,38.673,10.267,52.586,2.269
							c13.406-7.711,31.012-35.448,36.607-49.866c4.122-10.627,4.87-45.332,4.87-45.332s17.142,67.036,21.277,76.17
							c18.47,40.796,62.208,79.439,62.286,80.08c1.315,10.643,4.923,35.215-4.532,37.903c-6.019,1.71-21.495-5.935-22.411-12.7
							c-0.707-5.224,14.069-14.065,14.069-14.065s-12.507-9.082-17.028-8.188c-6.358,1.256-16.857,12.915-18.087,19.825
							c-1.547,8.687,5.752,27.857,12.385,33.198c9.201,7.411,34.15,6.619,45.188,4.171c10.266-2.274,28.018-11.16,39.159-20.079
							c4.112-0.15,7.724,0.441,10.549,2.195c11.938,7.407,24.564,38.775,19.535,50.63c-3.201,7.546-23.723,17.052-31.377,12.426
							c-5.91-3.572-2.784-25.918-2.784-25.918s-19.547,5.296-22.352,10.643c-3.944,7.52-0.679,27.813,5.358,34.748
							c7.589,8.717,33.146,17.028,44.046,14.653c14.088-3.069,32.14-25.922,39.864-39.768
							c12.056,15.358,25.889,29.446,36.305,36.648c17.543,12.128,60.563,31.267,81.914,24.869
							c15.388-4.61,41.782-32.91,45.259-49.182c2.769-12.948-7.275-40.789-17.489-47.509c-7.262-4.777-35.578,2.187-35.578,2.187
							s19.524,25.966,14.572,34.586c-6.415,11.168-38.895,13.51-48.191,6.239c-14.604-11.424-20.579-59.743-10.711-77.403
							c10.318-18.462,57.006-16.351,80.886-29.965c32.434-18.489,37.562-66.71,40.453-79.33c2.784-12.165,2.266-49.865,2.266-49.865
							s27.352,66.324,44.933,81.596c14.266,12.393,51.825,25.359,70.664,26.846c16.158,1.272,51.782-2.01,63.465-13.244
							C1294.161,4341.866,1300.914,4315.663,1297.073,4304.631z"/>
						<path fill="#FEFFFA" d="M1013.291,4241.365c0,0,11.087,31.711,6.064,40.684c-5.322,9.506-34.464,26.379-40.097,17.055
							C953.825,4257.016,1025,4183.79,1025,4133.15c0-66.347-52.432-120.131-117.11-120.131s-117.111,53.784-117.111,120.131
							c0,42.109,52.338,105.732,24.099,138.277c-5.107,5.885-22.737-11.448-24.724-18.984c-1.876-7.112,11.476-27.096,11.476-27.096
							s-26.281,19.602-26.981,29.588c-0.525,7.498-0.343,31.412,5.754,35.807c21.051,15.171,42.562,9.797,54.561,9.598
							c0.567-0.01,1.155-0.035,1.76-0.076c1.048,14.226,10.059,34.486,17.75,42.204c6.254,6.272,14.887,20.182,33.839,22.968
							c5.488,0.807,17.883-11.77,21.459-16.012c4.763-5.646,0.92-29.545,0.92-29.545s-3.202,17.449-7.854,20.254
							c-4.927,2.971-19.006,1.617-22.858-2.656c-4.997-5.546-3.664-23.165-0.355-29.859c1.4-2.832,5.794-6.439,10.506-9.715
							c16.481,15.677,37.691,29.408,51.847,33.314c16.165,4.461,43.403,19.252,77.194,6.073c9.789-3.816,18.393-36.12,20.3-46.451
							C1042.012,4277.078,1013.291,4241.365,1013.291,4241.365z"/>
						<path fill="#544B41" d="M899.196,4082.479c-22.268,0-39.821-9.057-39.821-9.057c0.186,0.156,19.063,2.857,39.821,2.857
							c21.189,0,36.169-1.776,36.317-1.924C935.514,4074.355,922.149,4082.479,899.196,4082.479z"/>
						<path fill="#62524B" d="M1142.947,3810.221c-14.524,0.046-34.343-0.587-42.388-4.062c-9.349-4.042-22.318-15.639-34.65-28.268
							c47.412,7.862,88.133-0.472,93.405-20.049c3.878-14.398-35.323-16.677-39.724-43.855
							c-2.269-14.01,19.388-22.287,22.285-36.529c8.354-41.082-28.617-81.463-82.583-90.193
							c-23.839-3.857-45.369,10.765-66.159,7.164c-54.118-9.373-102.474-55.66-172.359-46.984
							c-65.092,8.079-97.51,61.033-145.843,78.287c-3.06,1.094-77.669-1.35-80.843,19.461
							c-1.902,12.482,24.751,27.956,26.078,42.671c1.647,18.297-23.541,30.512-23.541,49.848c0,34.849,29.096,63.93,67.78,70.673
							c-10.691,12.688-26.309,31.369-32.823,39.896c-4.854,6.352-14.793,20.592-22.107,31.171
							c-4.91,7.104-1.373,11.784,7.845,10.356c16.896-2.613,42.015-6.689,52.839-9.402c24.764-6.203,73.102-22.355,96.372-32.125
							c21.908-9.196,60.801-36.727,83.938-43.088h0.002c3.44-0.291,35.93-5.216,47.907-8.527c33.896-3.986,72.703-5.293,95.44-1.163
							c24.768,4.501,65.044,36.846,89.788,41.445c12.213,2.271,40.988-0.354,59.494-2.452c9.282-1.051,16.781-7.131,16.781-13.359
							C1159.883,3814.908,1152.303,3810.191,1142.947,3810.221z"/>
					</g>
				</g>
			</g>
			<g>
				<path fill="#62524B" d="M472.839,4734.499h5.449v73.337h35.897v4.738h-41.347V4734.499z"/>
				<path fill="#62524B" d="M527.331,4734.499h42.648v4.739H532.78v29.5h31.276v4.739H532.78v34.358h38.385v4.738h-43.834V4734.499z
					"/>
				<path fill="#62524B" d="M582.295,4773.24c0-24.643,13.388-40.162,32.224-40.162c18.72,0,32.107,15.52,32.107,40.162
					c0,24.762-13.388,40.756-32.107,40.756C595.683,4813.996,582.295,4798.002,582.295,4773.24z M640.938,4773.24
					c0-21.56-10.662-35.186-26.42-35.186c-15.875,0-26.537,13.626-26.537,35.186c0,21.682,10.662,35.777,26.537,35.777
					C630.276,4809.018,640.938,4794.922,640.938,4773.24z"/>
				<path fill="#62524B" d="M663.796,4734.499h5.688l32.816,55.092l8.886,15.52h0.474c-0.355-7.581-0.711-15.165-0.711-22.747
					v-47.864h5.096v78.075h-5.688l-32.817-55.089l-8.885-15.521h-0.474c0.355,7.465,0.71,14.572,0.71,22.154v48.455h-5.094V4734.499
					z"/>
				<path fill="#62524B" d="M773.259,4785.798h-30.922l-9.123,26.776h-5.568l27.604-78.075h5.451l27.485,78.075h-5.806
					L773.259,4785.798z M771.718,4781.178l-4.977-14.571c-3.078-9.241-5.923-17.417-8.646-27.011h-0.475
					c-2.727,9.594-5.451,17.77-8.648,27.011l-4.977,14.571H771.718z"/>
				<path fill="#62524B" d="M842.913,4812.574l-21.088-35.899H805.24v35.899h-5.45v-78.075h22.273
					c15.52,0,25.709,5.688,25.709,20.616c0,12.438-7.819,19.547-20.021,21.206l21.443,36.253H842.913z M820.642,4772.176
					c13.861,0,21.443-5.569,21.443-17.061c0-11.73-7.582-15.995-21.443-15.995H805.24v33.056H820.642z"/>
				<path fill="#62524B" d="M865.299,4734.499h18.008c24.051,0,35.542,15.165,35.542,38.741c0,23.695-11.491,39.334-35.423,39.334
					h-18.127V4734.499z M882.714,4807.953c21.207,0,30.449-14.335,30.449-34.713c0-20.26-9.242-34.12-30.449-34.12h-11.965v68.833
					H882.714z"/>
				<path fill="#62524B" d="M931.163,4773.24c0-24.643,13.389-40.162,32.225-40.162c18.719,0,32.107,15.52,32.107,40.162
					c0,24.762-13.389,40.756-32.107,40.756C944.552,4813.996,931.163,4798.002,931.163,4773.24z M989.807,4773.24
					c0-21.56-10.661-35.186-26.419-35.186c-15.875,0-26.537,13.626-26.537,35.186c0,21.682,10.662,35.777,26.537,35.777
					C979.146,4809.018,989.807,4794.922,989.807,4773.24z"/>
				<path fill="#62524B" d="M1036.237,4734.499h18.008c24.051,0,35.543,15.165,35.543,38.741c0,23.695-11.492,39.334-35.424,39.334
					h-18.127V4734.499z M1053.653,4807.953c21.207,0,30.447-14.335,30.447-34.713c0-20.26-9.24-34.12-30.447-34.12h-11.965v68.833
					H1053.653z"/>
				<path fill="#62524B" d="M1140.962,4785.798h-30.922l-9.122,26.776h-5.567l27.603-78.075h5.45l27.486,78.075h-5.805
					L1140.962,4785.798z M1139.421,4781.178l-4.975-14.571c-3.081-9.241-5.925-17.417-8.648-27.011h-0.475
					c-2.726,9.594-5.451,17.77-8.648,27.011l-4.976,14.571H1139.421z"/>
				<path fill="#62524B" d="M1180.048,4734.499h5.807l14.453,45.614c2.962,9.478,4.976,16.703,8.174,26.182h0.475
					c3.199-9.479,5.33-16.704,8.293-26.182l14.453-45.614h5.449l-25.471,78.075h-5.924L1180.048,4734.499z"/>
				<path fill="#62524B" d="M1248.401,4734.499h5.449v78.075h-5.449V4734.499z"/>
				<path fill="#62524B" d="M1276.001,4734.499h5.688l32.816,55.092l8.886,15.52h0.474c-0.355-7.581-0.711-15.165-0.711-22.747
					v-47.864h5.094v78.075h-5.686l-32.816-55.089l-8.887-15.521h-0.475c0.357,7.465,0.712,14.572,0.712,22.154v48.455h-5.095
					V4734.499z"/>
				<path fill="#62524B" d="M1378.829,4733.078c9.123,0,16.112,4.501,20.258,9.357l-3.197,3.557
					c-4.266-4.739-9.953-7.938-17.061-7.938c-17.061,0-27.723,13.626-27.723,35.305s10.545,35.658,27.248,35.658
					c8.057,0,14.1-3.198,19.785-9.597l3.199,3.438c-5.924,6.871-13.031,11.138-23.22,11.138c-19.193,0-32.699-15.758-32.699-40.637
					C1345.42,4748.598,1358.926,4733.078,1378.829,4733.078z"/>
				<path fill="#62524B" d="M1416.497,4734.499h5.449v78.075h-5.449V4734.499z"/>
			</g>
			<g>
				<path opacity="0.15" fill="#FEFFF7" d="M2657.961,4570.555h-907.006c-62.585,0-113.318-45.572-113.318-101.788v-930.068
					c0-56.216,50.733-101.787,113.318-101.787h907.006c62.583,0,113.318,45.571,113.318,101.787v930.068
					C2771.279,4524.982,2720.544,4570.555,2657.961,4570.555z"/>
				<g>
					<path fill="#48574D" d="M2675.697,4572.345c0.317-24.221-1.048-49.165-4.266-74.359
						c-15.942-124.809-72.426-217.666-136.556-236.417l-194.591-103.871L2173.1,4273.562v298.782H2675.697z"/>
					<path fill="#EFF2E0" d="M2051.674,3675.912c0,0-33.966,1.99-44.754,6.703c-13.759,6.014-33.623,30.886-40.799,44.076
						c-7.271,13.368-6.904,46.12-15.04,58.979c-7.34,11.604-20.749,21.004-28.101,32.599c-9.397,14.821-10.726,46.64-6.8,63.744
						c3.921,17.084,14.439,43.734,20.475,60.191c4.821,13.146-2.368,42.205,0,56.004c1.83,10.663,10.191,30.845,14.426,40.801
						c4.716,11.079,22.549,31.06,21.589,43.065c-0.736,9.203-23.93,23.268-23.93,23.268s35.373,0.254,40.068-8.798
						c18.037-34.773-4.475-68.479-2.342-80.409c6.977-39.014,27.178-106.227,27.178-106.227L2051.674,3675.912z"/>
					<path fill="#EFF2E0" d="M2098.496,3723.441c0,0-23.584,0.473-31.337,4.699c-9.888,5.388-25.206,29.326-31.009,42.17
						c-5.88,13.014-7.731,45.717-14.175,58.188c-5.816,11.252-15.681,20.035-21.503,31.279
						c-7.442,14.374-10.404,46.065-8.793,63.312c1.61,17.222,7.161,44.285,10.271,60.977c2.484,13.331-4.348,42.014-3.6,55.889
						c0.578,10.722,5.056,31.233,7.341,41.357c2.543,11.267,13.575,31.997,12.141,43.935c-1.101,9.153-18.021,22.157-18.021,22.157
						s24.411,1.826,28.236-6.999c14.689-33.896,1.312-68.536,3.551-80.346c7.325-38.623,25.595-104.799,25.595-104.799
						L2098.496,3723.441z"/>
					<path fill="#EFF2E0" d="M2351.565,3683.213c0,0,33.966,1.988,44.755,6.704c13.759,6.012,33.623,30.885,40.799,44.073
						c7.271,13.369,6.903,46.123,15.039,58.981c7.34,11.604,20.75,21.001,28.102,32.597c9.397,14.822,10.727,46.642,6.8,63.746
						c-3.922,17.084-14.439,43.734-20.475,60.191c-4.821,13.145,2.367,42.205,0,56.004c-1.83,10.663-10.191,30.843-14.427,40.798
						c-4.714,11.081-22.549,31.06-21.588,43.067c0.736,9.203,23.93,23.269,23.93,23.269s-35.374,0.251-40.069-8.8
						c-18.035-34.771,4.476-68.479,2.343-80.408c-6.977-39.014-27.178-106.226-27.178-106.226L2351.565,3683.213z"/>
					<path fill="#EFF2E0" d="M2304.743,3730.742c0,0,23.585,0.474,31.338,4.697c9.888,5.391,25.206,29.328,31.008,42.17
						c5.881,13.017,7.731,45.719,14.177,58.191c5.815,11.251,15.68,20.034,21.502,31.279c7.441,14.371,10.404,46.065,8.792,63.309
						c-1.609,17.224-7.16,44.287-10.271,60.979c-2.484,13.332,4.348,42.013,3.599,55.889c-0.578,10.723-5.055,31.234-7.341,41.356
						c-2.543,11.269-13.574,31.998-12.141,43.937c1.102,9.153,18.021,22.156,18.021,22.156s-24.411,1.827-28.236-6.998
						c-14.689-33.898-1.311-68.537-3.551-80.348c-7.325-38.623-25.596-104.797-25.596-104.797L2304.743,3730.742z"/>
					<path fill="#F0DEC2" d="M2457.074,3838.477c0-30.712-24.024-55.803-54.303-57.527
						c-23.091-99.974-104.96-173.884-202.417-173.884c-97.631,0-179.612,74.175-202.535,174.418
						c-27.773,4.13-49.079,28.069-49.079,56.993c0,28.92,21.306,52.862,49.079,56.992c-7.419,72.604,9.094,145.445,68.647,187.21
						v74.28h286.671v-78.627c54.873-42.854,58.458-114.029,49.634-182.329C2433.05,3894.278,2457.074,3869.186,2457.074,3838.477z"
						/>
					<path fill="#EFF2E0" d="M2255.898,3721.774c-7.934,11.994,7.246,25.933,34.787,54.229c22.7,23.325,48.902,34.959,63.52,10.79
						c14.672-24.259-4.066-43.481-34.787-54.23C2282.138,3719.518,2263.832,3709.777,2255.898,3721.774z"/>
					<path fill="#EFF2E0" d="M2142.105,3721.774c7.934,11.994-7.246,25.933-34.787,54.229c-22.7,23.325-48.901,34.959-63.519,10.79
						c-14.673-24.259,4.064-43.481,34.787-54.23C2115.866,3719.518,2134.172,3709.777,2142.105,3721.774z"/>
					<path fill="#4A4741" d="M2199.887,3935.5h38.938c2.908,0,5.505-1.147,7.314-3.23c1.79-2.062,2.562-4.758,2.183-7.603
						l-10.263-120.871l4.254,121.544l0.013,0.086c0.158,1.117-0.109,2.141-0.751,2.882c-0.645,0.741-1.62,1.149-2.75,1.149
						L2199.887,3935.5z"/>
					<path fill="#544B41" d="M2227.611,4023.212c-43.964,0-78.622-14.153-78.622-14.153c0.368,0.244,37.637,4.464,78.622,4.464
						c41.835,0,71.409-2.774,71.702-3.006C2299.313,4010.517,2272.929,4023.212,2227.611,4023.212z"/>
					<g>
						<path fill="#FEFFFA" d="M2351.172,3841.495c8.709,10.056-12.598,24.294-42.617,24.769
							c-22.477,0.355-48.969-12.831-40.946-23.443c13.159-17.412,29.878-28.623,40.117-28.785
							C2330.37,3813.676,2335.091,3822.926,2351.172,3841.495z"/>
						<path fill="#4A4741" d="M2309.872,3856.353c-10.694,0.169-19.531-8.391-19.701-19.087
							c-0.171-10.694,8.392-19.531,19.086-19.699c10.694-0.171,19.532,8.391,19.702,19.085S2320.566,3856.182,2309.872,3856.353z"/>
					</g>
					<g>
						<path fill="#FEFFFA" d="M2079.244,3841.495c-8.71,10.056,12.597,24.294,42.617,24.769
							c22.476,0.355,48.969-12.831,40.946-23.443c-13.16-17.412-29.878-28.623-40.118-28.785
							C2100.046,3813.676,2095.325,3822.926,2079.244,3841.495z"/>
						<path fill="#4A4741" d="M2120.543,3856.353c10.694,0.169,19.532-8.391,19.702-19.087c0.17-10.694-8.393-19.531-19.087-19.699
							c-10.693-0.171-19.531,8.391-19.701,19.085S2109.85,3856.182,2120.543,3856.353z"/>
					</g>
					<path fill="#CFD1C3" d="M2359.199,4217.263c-25.838,5.005-117.107,22.216-150.893,22.205
						c-33.515-0.011-124.018-17.184-149.733-22.198c-3.811-0.742-6.899-5.751-6.899-11.172v-92.199c0-5.422,3.089-9.2,6.899-8.457
						c25.716,5.014,116.219,22.185,149.733,22.197c33.785,0.011,125.055-17.198,150.893-22.205c3.812-0.738,6.9,3.043,6.9,8.465
						v92.199C2366.1,4211.519,2363.011,4216.523,2359.199,4217.263z"/>
					<path fill="#EFF2E0" d="M2305.615,4223.172c13.9-5.133,22.451-12.05,22.253-19.449c-0.165-6.188-6.426-11.713-16.749-15.918
						c6.952-6.385,10.303-12.703,8.781-18.065c-3.947-13.904-39.152-16.089-78.637-4.881
						c-36.837,10.458-64.379,28.874-64.699,42.587c-0.659,1.515-0.948,3.228-0.888,5.111c-9.265,10.69,5.629,42.038,33.848,70.832
						c28.728,29.316,60.382,44.878,70.705,34.763c4.609-4.517,4.182-13.388-0.254-24.437c9.985,1.485,17.458,0.042,20.707-4.785
						c4.271-6.344,0.383-17.258-9.27-29.524c16.492,0.24,28.17-3.474,30.584-11.015
						C2324.28,4241.25,2317.818,4232.088,2305.615,4223.172z"/>
					<path fill="#48574D" d="M2229.769,4572.345c-0.261-294.557-3.024-300.906-6.397-303.261l-170.909-111.387l-185.916,106.042
						c-60.962,22.951-113.805,113.696-129.093,234.246c-3.195,25.194-4.549,50.139-4.234,74.359H2229.769z"/>
				</g>
			</g>
			<g>
				<path fill="#62524B" d="M1732.356,4734.5h21.088c15.639,0,25.709,5.924,25.709,18.955c0,8.174-4.621,14.691-13.861,17.06v0.474
					c11.49,1.66,18.719,8.058,18.719,18.838c0,15.045-11.375,22.746-29.025,22.746h-22.629V4734.5z M1751.192,4768.855
					c16.113,0,22.51-5.211,22.51-15.52c0-10.07-7.463-14.334-21.798-14.334h-14.099v29.854H1751.192z M1753.562,4808.071
					c15.521,0,24.998-5.687,24.998-18.245c0-11.137-9.123-16.588-24.998-16.588h-15.757v34.833H1753.562z"/>
				<path fill="#62524B" d="M1799.999,4734.5h42.649v4.736h-37.2v29.502h31.276v4.738h-31.276v34.357h38.385v4.738h-43.834V4734.5z"
					/>
				<path fill="#62524B" d="M1860.057,4734.5h5.688l32.815,55.09l8.887,15.52h0.474c-0.355-7.582-0.711-15.164-0.711-22.748V4734.5
					h5.095v78.072h-5.687l-32.817-55.088l-8.886-15.521h-0.474c0.355,7.465,0.711,14.572,0.711,22.156v48.453h-5.095V4734.5z"/>
				<path fill="#62524B" d="M1931.963,4799.777c3.909,6.635,8.53,9.241,15.046,9.241c9.478,0,14.099-5.569,14.099-18.245V4734.5
					h5.45v56.867c0,12.558-5.332,22.629-19.43,22.629c-8.768,0-15.283-4.148-19.312-11.494L1931.963,4799.777z"/>
				<path fill="#62524B" d="M2023.417,4785.797h-30.921l-9.122,26.775h-5.568l27.604-78.072h5.449l27.487,78.072h-5.806
					L2023.417,4785.797z M2021.877,4781.178l-4.976-14.572c-3.08-9.24-5.924-17.415-8.648-27.012h-0.474
					c-2.726,9.597-5.45,17.771-8.647,27.012l-4.977,14.572H2021.877z"/>
				<path fill="#62524B" d="M2049.95,4734.5h7.581l16.35,45.848l6.161,17.297h0.474l6.042-17.297l16.23-45.848h7.7v78.072h-5.331
					v-51.299c0-6.396,0.357-14.57,0.712-21.088h-0.475l-6.042,17.18l-16.824,46.676h-4.737l-16.824-46.676l-6.16-17.18h-0.474
					c0.237,6.518,0.592,14.691,0.592,21.088v51.299h-4.975V4734.5z"/>
				<path fill="#62524B" d="M2132.753,4734.5h5.45v78.072h-5.45V4734.5z"/>
				<path fill="#62524B" d="M2160.354,4734.5h5.686l32.816,55.09l8.887,15.52h0.473c-0.355-7.582-0.71-15.164-0.71-22.748V4734.5
					h5.095v78.072h-5.688l-32.816-55.088l-8.886-15.521h-0.475c0.356,7.465,0.712,14.572,0.712,22.156v48.453h-5.094V4734.5z"/>
				<path fill="#62524B" d="M2258.439,4734.5h42.531v4.736h-37.082v31.041h31.276v4.738h-31.276v37.557h-5.449V4734.5z"/>
				<path fill="#62524B" d="M2357.121,4812.572l-21.089-35.898h-16.585v35.898h-5.45V4734.5h22.273
					c15.52,0,25.708,5.686,25.708,20.613c0,12.438-7.819,19.548-20.022,21.207l21.445,36.252H2357.121z M2334.849,4772.174
					c13.861,0,21.443-5.568,21.443-17.061c0-11.729-7.582-15.994-21.443-15.994h-15.401v33.055H2334.849z"/>
				<path fill="#62524B" d="M2413.271,4785.797h-30.922l-9.121,26.775h-5.569l27.604-78.072h5.45l27.486,78.072h-5.806
					L2413.271,4785.797z M2411.73,4781.178l-4.975-14.572c-3.081-9.24-5.924-17.415-8.648-27.012h-0.476
					c-2.723,9.597-5.448,17.771-8.646,27.012l-4.977,14.572H2411.73z"/>
				<path fill="#62524B" d="M2439.804,4734.5h5.686l32.818,55.09l8.885,15.52h0.475c-0.355-7.582-0.711-15.164-0.711-22.748V4734.5
					h5.094v78.072h-5.687l-32.817-55.088l-8.885-15.521h-0.474c0.354,7.465,0.71,14.572,0.71,22.156v48.453h-5.094V4734.5z"/>
				<path fill="#62524B" d="M2514.315,4734.5h5.45v43.359h0.237l37.793-43.359h6.396l-24.879,28.906l28.314,49.166h-6.279
					l-25.707-45.021l-15.876,18.128v26.893h-5.45V4734.5z"/>
				<path fill="#62524B" d="M2579.588,4734.5h5.45v73.334h35.896v4.738h-41.347V4734.5z"/>
				<path fill="#62524B" d="M2634.079,4734.5h5.45v78.072h-5.45V4734.5z"/>
				<path fill="#62524B" d="M2661.68,4734.5h5.687l32.817,55.09l8.885,15.52h0.474c-0.354-7.582-0.711-15.164-0.711-22.748V4734.5
					h5.096v78.072h-5.688l-32.816-55.088l-8.886-15.521h-0.474c0.355,7.465,0.71,14.572,0.71,22.156v48.453h-5.094V4734.5z"/>
			</g>
			<g>
				<path opacity="0.15" fill="#FEFFF7" d="M3937.736,4570.555h-907.005c-62.585,0-113.318-45.572-113.318-101.786v-930.07
					c0-56.216,50.733-101.787,113.318-101.787h907.005c62.584,0,113.319,45.571,113.319,101.787v930.07
					C4051.056,4524.982,4000.32,4570.555,3937.736,4570.555z"/>
				<g>
					<ellipse fill="#EFF2E0" cx="3272.465" cy="3769.604" rx="43.991" ry="70.64"/>
					<rect x="3318.413" y="4254.301" fill="#CFD1C3" width="307.484" height="197.593"/>
					<path fill="#48574D" d="M3391.77,4572.345h157.08V4472.01l-49.79-75.671h0.683c4.173,0,7.722-3.378,7.926-7.547l4.543-91.952
						c0.207-4.167-3.008-7.543-7.181-7.543h-64.223c-4.172,0-7.388,3.376-7.182,7.543l4.543,91.952
						c0.17,3.437,2.615,6.333,5.807,7.244l-46.988,75.974L3391.77,4572.345z"/>
					<path fill="#F0DEC2" d="M3727.085,3869.934c0-30.711-24.024-55.803-54.304-57.526
						c-23.089-99.974-72.257-173.767-202.417-173.884c-144.099-0.131-179.611,74.174-202.535,174.417
						c-27.771,4.131-49.078,28.07-49.078,56.993c0,28.921,21.307,52.861,49.078,56.993
						c22.924,100.243,104.906,248.45,202.535,248.45c97.458,0,179.328-147.943,202.417-247.919
						C3703.061,3925.736,3727.085,3900.643,3727.085,3869.934z"/>
					<path fill="#EFF2E0" d="M3644.355,3809.645c-0.972,8.521-30.699,7.116-73.151,7.316c-34.994,0.167-58.929,3.18-55.781-13.401
						c3.158-16.641,25.434-19.949,59.302-17.456C3617.494,3789.25,3645.329,3801.124,3644.355,3809.645z"/>
					<path fill="#EFF2E0" d="M3295.638,3809.645c0.973,8.521,30.699,7.116,73.153,7.316c34.993,0.167,58.929,3.18,55.781-13.401
						c-3.159-16.641-25.435-19.949-59.303-17.456C3322.499,3789.25,3294.666,3801.124,3295.638,3809.645z"/>
					<path fill="#4A4741" d="M3504.167,4009.006h-52.491c-3.921,0-7.421-1.593-9.858-4.48c-2.414-2.861-3.456-6.604-2.942-10.547
						l13.834-167.646l-5.735,168.581l-0.018,0.117c-0.213,1.549,0.147,2.97,1.012,3.997c0.871,1.028,2.184,1.596,3.708,1.596
						L3504.167,4009.006z"/>
					<path fill="#544B41" d="M3474.205,4075.403c-34.929,0-62.465-18.797-62.465-18.797c0.292,0.192,29.902,11.101,62.465,11.101
						c33.239,0,56.735-9.76,56.968-9.943C3531.173,4057.764,3510.211,4075.403,3474.205,4075.403z"/>
					<rect x="3383.399" y="4099.165" fill="#F0DEC2" width="179.037" height="194.065"/>
					<path fill="none" d="M3472.383,4215.489c1.409,2.327,2.729,4.729,3.949,7.204c1.235-2.463,2.568-4.854,3.987-7.169
						c-1.146,0.029-2.297,0.044-3.452,0.044C3475.365,4215.568,3473.872,4215.537,3472.383,4215.489z"/>
					<path fill="#EFF2E0" d="M3626.235,4266.862c-2.646-42.23-28.446-76.605-61.947-87.314
						c-22.135,21.441-65.052,43.146-96.438,41.229c-34.565-2.107-65.643-20.035-87.562-41.318
						c-32.787,10.155-58.849,42.789-63.203,83.852c-5.591,52.73,26.729,99.383,72.188,104.203
						c34.089,3.614,65.886-44.517,82.019-77.448c15.209,31.833,45.199,79.87,78.336,77.796
						C3595.255,4365.002,3629.552,4319.784,3626.235,4266.862z"/>
					<g>
						<path fill="#FEFFFA" d="M3621.557,3876.586c9.851,7.512-22.665,22.432-50.623,22.432s-59.928-14.254-50.622-22.432
							c15.091-13.259,41.086-22.453,50.622-22.433C3580.747,3854.178,3595.987,3857.092,3621.557,3876.586z"/>
						<path fill="#4A4741" d="M3571.013,3897.597c-11.586,0-21.012-9.425-21.012-21.011s9.426-21.01,21.012-21.01
							c11.585,0,21.011,9.424,21.011,21.01S3582.598,3897.597,3571.013,3897.597z"/>
					</g>
					<g>
						<path fill="#FEFFFA" d="M3320.212,3876.586c-9.85,7.512,22.666,22.432,50.624,22.432s59.927-14.254,50.621-22.432
							c-15.09-13.259-41.084-22.453-50.621-22.433C3361.022,3854.178,3345.782,3857.092,3320.212,3876.586z"/>
						<path fill="#4A4741" d="M3370.758,3897.597c11.586,0,21.012-9.425,21.012-21.011s-9.426-21.01-21.012-21.01
							s-21.012,9.424-21.012,21.01S3359.172,3897.597,3370.758,3897.597z"/>
					</g>
					<path fill="#EFF2E0" d="M3704.638,3696.039c-35.623-48.583-82.162-69.668-108.225-40.12
						c-11.97-66.108-95.408-96.116-184.673-71.484c-48.779,13.461-73.595,45.788-116.129,63.635
						c-21.198,8.896-58.665-2.851-58.665,17.423c0,52.41,120.187,108.737,202.708,108.737c66.453,0,125.125-25.864,147.929-63.192
						c7.002,24.087,24.523,50.365,47.775,74.57C3721.302,3875.076,3741.12,3745.793,3704.638,3696.039z"/>
					<path fill="#62524B" d="M3907.382,4437.368c-12.084-95.354-46.466-169.537-76.792-165.692
						c-0.771,0.097-1.527,0.256-2.276,0.452l-235.168-76.685l-112.541,376.901l423.915-0.213
						C3912.504,4538.941,3914.113,4490.477,3907.382,4437.368z"/>
					<path fill="#62524B" d="M3462.789,4572.345l-112.048-376.901l-216.521,76.154c-29.383,2.22-61.531,74.233-73.132,165.771
						c-6.731,53.108-5.122,101.573,2.862,134.764L3462.789,4572.345z"/>
				</g>
			</g>
			<g>
				<path fill="#62524B" d="M3203.328,4734.499h5.449v34.239h41.703v-34.239h5.449v78.074h-5.449v-39.094h-41.703v39.094h-5.449
					V4734.499z"/>
				<path fill="#62524B" d="M3278.195,4734.499h42.65v4.74h-37.202v29.499h31.278v4.741h-31.278v34.356h38.387v4.737h-43.835
					V4734.499z"/>
				<path fill="#62524B" d="M3338.256,4734.499h5.686l32.816,55.092l8.885,15.52h0.475c-0.355-7.581-0.711-15.165-0.711-22.746
					v-47.865h5.094v78.074h-5.688l-32.814-55.088l-8.888-15.521h-0.473c0.355,7.465,0.71,14.573,0.71,22.155v48.454h-5.092V4734.499
					z"/>
				<path fill="#62524B" d="M3455.891,4812.573l-21.088-35.899h-16.586v35.899h-5.45v-78.074h22.272
					c15.52,0,25.709,5.688,25.709,20.616c0,12.438-7.819,19.546-20.022,21.206l21.444,36.252H3455.891z M3433.619,4772.176
					c13.861,0,21.443-5.569,21.443-17.061c0-11.73-7.582-15.995-21.443-15.995h-15.402v33.056H3433.619z"/>
				<path fill="#62524B" d="M3489.177,4780.941l-23.458-46.442h5.806l11.847,24.407c2.725,5.687,5.332,11.136,8.293,16.823h0.475
					c2.963-5.688,5.923-11.137,8.53-16.823l11.847-24.407h5.568l-23.457,46.442v31.632h-5.45V4780.941z"/>
				<path fill="#62524B" d="M3552.67,4734.499h42.531v4.74h-37.082v31.039h31.275v4.738h-31.275v37.557h-5.449V4734.499z"/>
				<path fill="#62524B" d="M3601.947,4773.241c0-24.643,13.389-40.164,32.227-40.164c18.719,0,32.105,15.521,32.105,40.164
					c0,24.761-13.387,40.755-32.105,40.755C3615.336,4813.996,3601.947,4798.002,3601.947,4773.241z M3660.592,4773.241
					c0-21.562-10.662-35.188-26.418-35.188c-15.877,0-26.539,13.626-26.539,35.188c0,21.682,10.662,35.777,26.539,35.777
					C3649.93,4809.019,3660.592,4794.923,3660.592,4773.241z"/>
				<path fill="#62524B" d="M3726.572,4812.573l-21.086-35.899h-16.588v35.899h-5.448v-78.074h22.272
					c15.52,0,25.709,5.688,25.709,20.616c0,12.438-7.82,19.546-20.021,21.206l21.442,36.252H3726.572z M3704.301,4772.176
					c13.861,0,21.443-5.569,21.443-17.061c0-11.73-7.582-15.995-21.443-15.995h-15.402v33.056H3704.301z"/>
				<path fill="#62524B" d="M3748.957,4734.499h18.01c24.051,0,35.54,15.166,35.54,38.742c0,23.695-11.489,39.332-35.423,39.332
					h-18.127V4734.499z M3766.374,4807.952c21.206,0,30.446-14.334,30.446-34.711c0-20.258-9.24-34.121-30.446-34.121h-11.966
					v68.832H3766.374z"/>
			</g>
			<g>
				<path opacity="0.15" fill="#FEFFF7" d="M5213.299,4570.555h-907.004c-62.585,0-113.318-45.572-113.318-101.788v-930.068
					c0-56.216,50.733-101.787,113.318-101.787h907.004c62.586,0,113.318,45.571,113.318,101.787v930.068
					C5326.617,4524.982,5275.885,4570.555,5213.299,4570.555z"/>
				<g>
					<path fill="#48574D" d="M5193.721,4572.345c-12.008-172.934-49.735-310.308-86.891-316.87l-236.938-120.21l-131.137,93.601
						l-111.269-93.601l-220.327,120.571v1.611c-35.279,18.492-69.883,150.655-81.287,314.897H5193.721z"/>
					<path fill="#CFD1C3" d="M4892.145,4044.903c-25.838,6.351-117.107,28.188-150.893,28.173
						c-33.514-0.015-124.018-21.802-149.734-28.164c-3.811-0.942-6.898,3.852-6.898,10.729v116.982
						c0,6.878,3.088,13.234,6.898,14.177c23.34,5.773,100.044,24.254,139.078,27.631c0.006,19.369,10.542,47.006,39.476,86.531
						c36.806,50.28,79.236,85.014,109.267,68.289c30.031-16.723-16.562-43.506-29.744-104.408
						c-5.222-24.131-10.084-46.853-18.197-64.045c25.886-5.552,49.509-11.245,60.748-14.007c3.812-0.938,6.9-7.29,6.9-14.168
						v-116.982C4899.045,4048.764,4895.957,4043.966,4892.145,4044.903z"/>
					<path fill="#F0DEC2" d="M4998.266,3880.439c0-30.712-24.025-55.803-54.303-57.527
						c-23.091-99.974-104.959-173.885-202.418-173.885c-97.63,0-179.611,74.174-202.535,174.419
						c-27.772,4.13-49.079,28.069-49.079,56.993c0,28.92,21.307,52.86,49.079,56.992
						c22.924,100.243,104.905,214.457,202.535,214.457c97.457,0,179.327-113.949,202.418-213.925
						C4974.24,3936.241,4998.266,3911.148,4998.266,3880.439z"/>
					<path fill="#544B41" d="M4747.127,4059.768c-38.498,0-68.85-29.964-68.85-29.964c0.323,0.212,32.96,21.481,68.85,21.481
						c36.636,0,62.534-20.002,62.791-20.205C4809.918,4031.08,4786.812,4059.768,4747.127,4059.768z"/>
					<path fill="#EFF2E0" d="M4918.459,3835.734c-0.973,8.521-30.699,7.116-73.153,7.317c-34.993,0.165-58.929,3.179-55.782-13.401
						c3.158-16.642,25.436-19.949,59.303-17.458C4891.598,3815.34,4919.431,3827.213,4918.459,3835.734z"/>
					<path fill="#EFF2E0" d="M4569.738,3835.734c0.974,8.521,30.7,7.116,73.154,7.317c34.992,0.165,58.929,3.179,55.781-13.401
						c-3.158-16.642-25.435-19.949-59.303-17.458C4596.6,3815.34,4568.766,3827.213,4569.738,3835.734z"/>
					<g>
						<path fill="#FEFFFA" d="M4894.771,3891.487c9.85,5.64-22.666,16.84-50.624,16.84c-27.957,0-59.929-10.701-50.621-16.84
							c15.089-9.953,41.085-16.856,50.621-16.841C4853.961,3874.664,4869.201,3876.852,4894.771,3891.487z"/>
						<path fill="#4A4741" d="M4844.226,3907.26c-11.586,0-21.011-7.075-21.011-15.772c0-8.699,9.425-15.772,21.011-15.772
							c11.585,0,21.011,7.073,21.011,15.772C4865.236,3900.185,4855.811,3907.26,4844.226,3907.26z"/>
					</g>
					<g>
						<path fill="#FEFFFA" d="M4593.426,3891.487c-9.85,5.64,22.666,16.84,50.623,16.84c27.959,0,59.93-10.701,50.623-16.84
							c-15.09-9.953-41.086-16.856-50.623-16.841C4634.236,3874.664,4618.996,3876.852,4593.426,3891.487z"/>
						<path fill="#4A4741" d="M4643.972,3907.26c11.586,0,21.011-7.075,21.011-15.772c0-8.699-9.425-15.772-21.011-15.772
							c-11.587,0-21.011,7.073-21.011,15.772C4622.961,3900.185,4632.385,3907.26,4643.972,3907.26z"/>
					</g>
					<path fill="#4A4741" d="M4731.293,3974.181h38.936c2.91,0,5.506-1.148,7.314-3.233c1.791-2.062,2.562-4.758,2.184-7.603
						l-10.264-120.87l4.254,121.545l0.014,0.085c0.158,1.116-0.109,2.14-0.751,2.881c-0.646,0.743-1.62,1.15-2.751,1.15
						L4731.293,3974.181z"/>
					<path fill="#EFF2E0" d="M5023.219,4151.889c0,0,16.732-15.469,20.398-22.013c5.121-9.145,14.148-30.264,11.332-40.358
						c-2.92-10.476-18.595-15.535-29.465-15.867c-8.098-0.246-27.219,6.8-27.219,6.8l24.953,22.665c0,0-17.562,16.081-24.953,15.869
						c-11.633-0.336-33.561-16.354-37.78-27.201c-5.739-14.748,2.208-32.177,7.538-47.078c6.172-17.258,33.04-43.738,36.184-61.795
						c3.177-18.242-7.619-72.918-7-91.423c0.416-12.507,12.959-36.82,10.145-49.013c-4.311-18.678-31.088-54.574-37.747-72.55
						c-3.85-10.39-7.987-45.396-9.21-56.312c-1.854-27.257-33.66-61.148-80.115-82.322c-44.883-20.459-89.76-22.808-112.395-8.075
						c-28.096-25.889-83.852-32.854-142.059-17.219c-160.193,43.031-173.793,170.729-170.468,227.982
						c0.794,13.672,13.188,39.377,13.756,52.867c0.837,19.961-13.8,78.934-9.493,98.608c4.262,19.476,40.688,48.038,49.056,66.653
						c7.226,16.071,17.999,34.87,10.221,50.779c-5.723,11.697-35.448,28.976-51.222,29.337
						c-10.02,0.229-33.828-17.115-33.828-17.115l33.828-24.446c0,0-25.92-7.602-36.9-7.336
						c-14.734,0.359-35.988,5.817-39.947,17.115c-3.816,10.887,8.422,33.67,15.364,43.529c4.972,7.061,27.655,23.744,27.655,23.744
						s-40.023,24.216-43.02,36.495c-2.025,8.301,8.291,25.228,15.364,31.538c9.499,8.479,36.257,21.453,50.528,21.157
						c13.006-0.27,44.73-21.157,44.73-21.157s-27.566-3.188-33.775-8.18c-6.859-5.517-15.508-22.93-10.955-29.792
						c6.276-9.464,49.388,9.751,62.177,6.434c24.417-6.333,53.126-27.164,68.21-43.702c17.606-19.301,21.676-73.027,18.441-96.738
						c-3.736-27.373-25.973-80.197-29.71-107.57c-2.024-14.832,1.743-44.824,0-59.678c-3.167-26.993-32.793-80.133-25.22-106.564
						c1.395-4.875,5.285-11.059,10.578-17.804c30.323,12.244,72.268,13.328,115.109,0.339
						c48.316-14.648,85.751-43.551,101.812-74.689c13.848,13.844,32.725,26.896,54.965,37.033
						c25.104,11.443,52.23,8.461,71.418,17.512c19.273,9.093,29.816,37.167,32.585,49.311c5.587,24.506-16.269,73.773-18.603,98.799
						c-1.286,13.772,1.492,41.578,0,55.33c-2.755,25.377-19.158,74.354-21.914,99.731c-2.385,21.981-12.987,78.476,0,96.37
						c11.128,15.33,45.902,27.963,63.915,33.836c9.433,3.076,41.231-14.74,45.862-5.966c3.357,6.364-3.022,22.507-8.082,27.62
						c-4.578,4.629-24.912,7.586-24.912,7.586s23.4,19.365,32.994,19.615c10.525,0.273,30.264-11.756,37.27-19.615
						c5.217-5.853,12.827-21.545,11.332-29.24C5052.74,4174.341,5023.219,4151.889,5023.219,4151.889z"/>
				</g>
			</g>
			<g>
				<path fill="#62524B" d="M4422.385,4734.502h5.449v78.072h-5.449V4734.502z"/>
				<path fill="#62524B" d="M4447.379,4798.478c5.688,6.396,13.861,10.542,22.984,10.542c11.848,0,19.428-6.396,19.428-15.638
					c0-9.714-6.396-12.913-14.098-16.35l-11.848-5.331c-6.752-2.962-15.756-7.818-15.756-19.429
					c0-11.255,9.715-19.192,22.629-19.192c9.477,0,17.059,4.266,21.799,9.358l-3.199,3.673c-4.502-4.857-10.781-8.057-18.6-8.057
					c-10.309,0-17.18,5.452-17.18,13.982c0,9.004,7.82,12.438,13.506,15.045l11.848,5.212c8.648,3.911,16.35,8.769,16.35,20.733
					s-9.834,20.969-24.998,20.969c-11.373,0-20.141-4.855-26.301-11.728L4447.379,4798.478z"/>
				<path fill="#62524B" d="M4545.822,4785.801h-30.92l-9.123,26.773h-5.568l27.605-78.072h5.449l27.484,78.072h-5.805
					L4545.822,4785.801z M4544.283,4781.179l-4.977-14.571c-3.08-9.24-5.922-17.416-8.648-27.011h-0.473
					c-2.725,9.595-5.449,17.771-8.648,27.011l-4.977,14.571H4544.283z"/>
				<path fill="#62524B" d="M4607.307,4785.801h-30.922l-9.123,26.773h-5.568l27.604-78.072h5.449l27.486,78.072h-5.805
					L4607.307,4785.801z M4605.766,4781.179l-4.977-14.571c-3.08-9.24-5.924-17.416-8.648-27.011h-0.475
					c-2.725,9.595-5.449,17.771-8.648,27.011l-4.975,14.571H4605.766z"/>
				<path fill="#62524B" d="M4660.969,4733.08c9.121,0,16.111,4.502,20.258,9.358l-3.199,3.554
					c-4.264-4.738-9.951-7.938-17.059-7.938c-17.061,0-27.723,13.623-27.723,35.306c0,21.679,10.543,35.659,27.248,35.659
					c8.057,0,14.1-3.197,19.785-9.596l3.199,3.438c-5.924,6.87-13.031,11.135-23.221,11.135c-19.191,0-32.699-15.757-32.699-40.636
					C4627.559,4748.599,4641.066,4733.08,4660.969,4733.08z"/>
				<path fill="#62524B" d="M4722.209,4734.502h5.686l32.818,55.091l8.885,15.519h0.475c-0.355-7.581-0.711-15.164-0.711-22.746
					v-47.863h5.094v78.072h-5.686l-32.818-55.088l-8.885-15.521h-0.475c0.355,7.464,0.711,14.571,0.711,22.154v48.454h-5.094
					V4734.502z"/>
				<path fill="#62524B" d="M4796.721,4734.502h42.65v4.738h-37.201v29.499h31.277v4.74h-31.277v34.356h38.385v4.738h-43.834
					V4734.502z"/>
				<path fill="#62524B" d="M4848.486,4734.502h5.805l9.715,45.967c1.896,8.531,3.674,17.062,5.451,25.472h0.475
					c1.775-8.41,3.908-16.94,5.922-25.472l12.322-45.967h5.449l12.322,45.967c2.014,8.531,4.146,16.942,6.16,25.472h0.473
					c1.777-8.529,3.436-16.94,5.213-25.472l9.715-45.967h5.451l-17.535,78.072h-6.041l-14.217-53.549
					c-1.422-6.161-2.727-11.491-4.148-17.652h-0.473c-1.303,6.161-2.844,11.491-4.266,17.652l-13.979,53.549h-6.043
					L4848.486,4734.502z"/>
				<path fill="#62524B" d="M4963.988,4739.24h-24.879v-4.738h55.09v4.738h-24.762v73.334h-5.449V4739.24z"/>
				<path fill="#62524B" d="M5000.828,4773.243c0-24.645,13.387-40.163,32.225-40.163c18.719,0,32.105,15.519,32.105,40.163
					c0,24.761-13.387,40.753-32.105,40.753C5014.215,4813.996,5000.828,4798.004,5000.828,4773.243z M5059.473,4773.243
					c0-21.565-10.662-35.188-26.42-35.188c-15.875,0-26.539,13.623-26.539,35.188c0,21.681,10.664,35.776,26.539,35.776
					C5048.811,4809.02,5059.473,4794.924,5059.473,4773.243z"/>
				<path fill="#62524B" d="M5082.328,4734.502h5.688l32.818,55.091l8.885,15.519h0.473c-0.355-7.581-0.711-15.164-0.711-22.746
					v-47.863h5.096v78.072h-5.688l-32.816-55.088l-8.885-15.521h-0.475c0.355,7.464,0.711,14.571,0.711,22.154v48.454h-5.096
					V4734.502z"/>
			</g>
		</g>
		<g>
			<g>
				<g>
					<path opacity="0.15" fill="#FEFFF7" d="M2012.678,2891.209h-907.007c-62.585,0-113.317-45.572-113.317-101.786v-930.068
						c0-56.215,50.732-101.787,113.317-101.787h907.007c62.583,0,113.318,45.572,113.318,101.787v930.068
						C2125.996,2845.637,2075.261,2891.209,2012.678,2891.209z"/>
					<g>
						<path fill="#48574D" d="M2003.337,2892.999c-15.557-293.806-60.336-526.019-444.162-526.019
							c-373.271,0-428.606,232.213-444.163,526.019H2003.337z"/>
						<g>
							<path fill="#EFF2E0" d="M1364.319,2464.14c-3.194,2.684-5.785,1.477-5.785-2.696v-32.421l-53.568,8.26
								c-4.124,0.635-6.535-2.1-5.386-6.111l15.89-55.464l-110.519-26.601c-4.057-0.977-4.628-3.782-1.276-6.268l61.93-45.907
								l-82.303-60.279c-3.365-2.466-3.204-6.221,0.361-8.387l92.669-56.304l-67.834-105.303c-2.261-3.508-0.718-6.136,3.447-5.87
								l128.457,8.193l-4.091-69.645c-0.244-4.166,2.526-5.923,6.19-3.925l63.632,34.687l40.547-114.64
								c1.392-3.934,4.55-4.417,7.053-1.08l67.997,90.622l44.902-51.552c2.741-3.146,6.772-2.84,9.006,0.685l32.222,50.868
								l56.7-76.482c2.485-3.352,5.105-2.741,5.854,1.363l16.777,92.019l148.978-28.676c4.097-0.79,6.137,1.702,4.557,5.563
								l-56.06,136.983l105.836-14.644c4.133-0.571,5.963,1.986,4.088,5.714l-41.937,83.372l64.058,44.422
								c3.428,2.378,2.971,5.285-1.023,6.494l-69.834,21.137l89.998,94.849c2.871,3.027,1.817,5.481-2.355,5.481h-114.841
								l18.192,59.6c1.219,3.99-0.919,5.933-4.774,4.337l-58.75-24.312l-3.805,39.259c-0.402,4.152-3.321,5.345-6.519,2.665
								l-55.409-46.456l-301.458,11.333L1364.319,2464.14z"/>
							<path fill="#F0DEC2" d="M1805.834,2296.933c0-30.711-24.024-55.803-54.302-57.527
								c-23.093-99.974-104.96-173.884-202.419-173.884c-97.63,0-179.612,74.174-202.535,174.418
								c-27.772,4.13-49.079,28.07-49.079,56.993c0,28.921,21.307,52.861,49.079,56.993
								c22.924,100.243,104.905,174.417,202.535,174.417c97.458,0,179.326-73.91,202.419-173.884
								C1781.81,2352.734,1805.834,2327.642,1805.834,2296.933z"/>
							<path fill="#EFF2E0" d="M1715.463,2197.305c-6.185,12.985-25.955,7.168-64.403-1.832
								c-31.689-7.418-55.171-23.867-42.004-48.855c13.216-25.082,39.35-18.943,64.402,1.833
								C1703.861,2173.663,1721.648,2184.32,1715.463,2197.305z"/>
							<path fill="#EFF2E0" d="M1382.928,2197.305c6.186,12.985,25.957,7.168,64.404-1.832
								c31.689-7.418,55.171-23.867,42.004-48.855c-13.216-25.082-39.35-18.943-64.402,1.833
								C1394.53,2173.663,1376.743,2184.32,1382.928,2197.305z"/>
							<path fill="#4A4741" d="M1575.932,2348.93h-38.937c-2.909,0-5.506-1.148-7.314-3.232c-1.79-2.062-2.562-4.758-2.183-7.603
								l10.263-120.871l-4.254,121.546l-0.014,0.084c-0.158,1.117,0.109,2.142,0.751,2.882c0.646,0.741,1.62,1.15,2.751,1.15
								L1575.932,2348.93z"/>
							<g>
								<ellipse fill="#BF2D35" cx="1551.667" cy="2437.654" rx="52.126" ry="61.947"/>
								<path fill="#EFF2E0" d="M1518.224,2362.527h71.014l74.238,13.18c0,0-25.89,38.192-109.337,38.192
									c-78.221,0-114.278-38.192-114.278-38.192L1518.224,2362.527z"/>
							</g>
							<circle fill="#FEFFFA" cx="1643.568" cy="2258.686" r="38.246"/>
							<path fill="#4A4741" d="M1643.568,2275.517c-9.281,0-16.831-7.55-16.831-16.831c0-9.28,7.55-16.831,16.831-16.831
								c9.28,0,16.831,7.551,16.831,16.831C1660.399,2267.967,1652.849,2275.517,1643.568,2275.517z"/>
							<g>
								<circle fill="#FEFFFA" cx="1447.367" cy="2258.686" r="38.246"/>
								<path fill="#4A4741" d="M1447.367,2275.517c-9.28,0-16.831-7.55-16.831-16.831c0-9.28,7.551-16.831,16.831-16.831
									s16.83,7.551,16.83,16.831C1464.197,2267.967,1456.647,2275.517,1447.367,2275.517z"/>
							</g>
						</g>
					</g>
				</g>
				<g>
					<path fill="#62524B" d="M1185.864,3105.45h-30.922l-9.122,26.775h-5.569l27.605-78.072h5.449l27.486,78.072h-5.805
						L1185.864,3105.45z M1184.323,3100.831l-4.975-14.571c-3.08-9.241-5.926-17.417-8.649-27.013h-0.475
						c-2.725,9.596-5.448,17.771-8.646,27.013l-4.976,14.571H1184.323z"/>
					<path fill="#62524B" d="M1212.396,3054.153h5.449v73.334h35.897v4.738h-41.347V3054.153z"/>
					<path fill="#62524B" d="M1266.888,3054.153h21.088c15.639,0,25.709,5.922,25.709,18.955c0,8.175-4.621,14.691-13.861,17.06
						v0.475c11.492,1.659,18.718,8.058,18.718,18.837c0,15.046-11.372,22.746-29.024,22.746h-22.629V3054.153z M1285.725,3088.511
						c16.111,0,22.51-5.213,22.51-15.521c0-10.07-7.464-14.334-21.798-14.334h-14.1v29.855H1285.725z M1288.094,3127.725
						c15.521,0,24.999-5.687,24.999-18.245c0-11.136-9.122-16.586-24.999-16.586h-15.757v34.831H1288.094z"/>
					<path fill="#62524B" d="M1334.53,3054.153h42.648v4.738h-37.199v29.498h31.276v4.74h-31.276v34.357h38.385v4.738h-43.834
						V3054.153z"/>
					<path fill="#62524B" d="M1437.712,3132.226l-21.088-35.896h-16.586v35.896h-5.45v-78.072h22.274
						c15.518,0,25.708,5.686,25.708,20.613c0,12.441-7.82,19.548-20.022,21.207l21.443,36.252H1437.712z M1415.439,3091.829
						c13.861,0,21.444-5.569,21.444-17.062c0-11.729-7.583-15.994-21.444-15.994h-15.401v33.057H1415.439z"/>
					<path fill="#62524B" d="M1474.553,3058.892h-24.88v-4.738h55.09v4.738h-24.76v73.334h-5.45V3058.892z"/>
					<path fill="#62524B" d="M1542.547,3054.153h42.65v4.738h-37.201v29.498h31.277v4.74h-31.277v34.357h38.386v4.738h-43.835
						V3054.153z"/>
					<path fill="#62524B" d="M1602.606,3054.153h5.448v78.072h-5.448V3054.153z"/>
					<path fill="#62524B" d="M1630.206,3054.153h5.686l32.816,55.09l8.885,15.521h0.476c-0.354-7.584-0.711-15.166-0.711-22.75
						v-47.861h5.097v78.072h-5.688l-32.817-55.087l-8.887-15.521h-0.474c0.355,7.464,0.711,14.571,0.711,22.155v48.453h-5.094
						V3054.153z"/>
					<path fill="#62524B" d="M1702.111,3118.13c5.687,6.396,13.862,10.543,22.984,10.543c11.847,0,19.431-6.398,19.431-15.639
						c0-9.714-6.398-12.914-14.099-16.35l-11.848-5.33c-6.752-2.965-15.757-7.822-15.757-19.432
						c0-11.255,9.715-19.191,22.628-19.191c9.478,0,17.061,4.268,21.8,9.357l-3.199,3.675c-4.502-4.856-10.781-8.056-18.601-8.056
						c-10.307,0-17.178,5.449-17.178,13.979c0,9.005,7.819,12.439,13.505,15.046l11.848,5.214
						c8.648,3.91,16.349,8.768,16.349,20.732c0,11.967-9.833,20.971-24.997,20.971c-11.374,0-20.141-4.858-26.301-11.73
						L1702.111,3118.13z"/>
					<path fill="#62524B" d="M1780.062,3058.892h-24.879v-4.738h55.089v4.738h-24.76v73.334h-5.45V3058.892z"/>
					<path fill="#62524B" d="M1824.484,3054.153h42.649v4.738h-37.2v29.498h31.277v4.74h-31.277v34.357h38.386v4.738h-43.835
						V3054.153z"/>
					<path fill="#62524B" d="M1884.543,3054.153h5.449v78.072h-5.449V3054.153z"/>
					<path fill="#62524B" d="M1912.144,3054.153h5.688l32.815,55.09l8.885,15.521h0.475c-0.354-7.584-0.711-15.166-0.711-22.75
						v-47.861h5.095v78.072h-5.686l-32.818-55.087l-8.885-15.521h-0.476c0.357,7.464,0.712,14.571,0.712,22.155v48.453h-5.094
						V3054.153z"/>
				</g>
			</g>
			<g>
				<g>
					<path opacity="0.15" fill="#FEFFF7" d="M4582.832,2891.209h-907.005c-62.585,0-113.318-45.572-113.318-101.786v-930.068
						c0-56.215,50.733-101.787,113.318-101.787h907.005c62.584,0,113.318,45.572,113.318,101.787v930.068
						C4696.15,2845.637,4645.416,2891.209,4582.832,2891.209z"/>
					<g>
						<path fill="#EFF2E0" d="M4228.699,1935.052c0,53.878-54.318,97.555-121.324,97.555s-116.203-43.922-121.326-97.555
							c-9.318-97.555,54.32-97.555,121.326-97.555S4228.699,1837.498,4228.699,1935.052z"/>
						<path fill="#F0DEC2" d="M4199.506,2395.393c-4.059-4.148,0-23.216,0-23.216c55.064-29.245,96.769-84.419,112.204-151.25
							c30.276-1.724,54.302-26.815,54.302-57.524c0-30.712-24.025-55.804-54.302-57.527
							c-23.093-99.975-104.961-173.884-202.418-173.884c-97.631,0-179.613,74.173-202.535,174.417
							c-27.772,4.131-49.079,28.072-49.079,56.995c0,28.921,21.307,52.86,49.079,56.992
							c15.806,69.12,59.693,125.841,117.427,154.403c0,0,3.564,16.725,0,20.357c-89.616,91.316-220.671,19.093-220.671,128.165
							c0,0.879,0.028,1.756,0.071,2.631l-60.268,341.303l141.52,24.99c0,0,550.24-297.953,550.24-368.924
							C4435.076,2416.088,4294.335,2492.3,4199.506,2395.393z"/>
						<path fill="#EFF2E0" d="M4281.598,2097.042c-3.171,14.027-29.693-3.317-72.668-4.409c-35.422-0.9-60.394,3.268-52.957-23.984
							c7.466-27.354,32.569-42.206,64.44-26.819C4259.088,2060.503,4284.768,2083.013,4281.598,2097.042z"/>
						<path fill="#EFF2E0" d="M3936.078,2097.042c3.171,14.027,29.692-3.317,72.667-4.409c35.423-0.9,60.395,3.268,52.957-23.984
							c-7.466-27.354-32.567-42.206-64.438-26.819C3958.589,2060.503,3932.907,2083.013,3936.078,2097.042z"/>
						<path fill="#E5BC1B" d="M4218.059,2397.611l172.686,53.025l90.664,13.431l95.197,428.178l-894.552,0.755l89.912-430.336
							l84.609-12.365l150.777-52.423c3.94-1.371,8.19,0.731,9.491,4.696l92.344,281.201l99.139-281.254
							C4209.713,2398.583,4214.07,2396.386,4218.059,2397.611z"/>
						<path fill="#62524B" d="M4268.253,2413.765c0,0,91.236,25.476,122.491,32.579c22.344,5.077,73.889,3.113,90.664,18.719
							c80.111,74.524,95.197,427.182,95.197,427.182l-894.552,0.755c0,0,10.026-354.21,89.912-429.34
							c15.571-14.646,63.845-12.572,84.609-17.654c26.616-6.513,103.521-30.729,103.521-30.729l149.092,424.361L4268.253,2413.765z"
							/>
						<path fill="#EFF2E0" d="M4203.693,2513.597c0,148.29-92.239,268.501-92.239,268.501s-92.24-120.211-92.24-268.501
							c0-148.288,16.939-268.502,92.24-268.502C4192.766,2245.095,4203.693,2365.309,4203.693,2513.597z"/>
						<path fill="#F0DEC2" d="M3950.441,2892.021c57.116-46.355,78.991-105.771,110.419-125.537
							c19.957-12.55,53.54-7.833,80.478-28.378c42.832-32.663,94.505-123.089,46.742-125.167
							c-38.793-1.69-75.266,1.004-118.098,31.604c-26.586,18.991-31.181,49.741-48.3,63.506
							c-31.382,25.231-103.567,31.19-175.253,73.363c-72.177,42.46-123.625,74.429-142.451,110.609H3950.441z"/>
						<path fill="#F0DEC2" d="M4087.613,2738.106c26.938,20.545,60.52,15.828,80.479,28.378
							c31.428,19.766,53.303,79.182,110.418,125.537h246.465c-18.826-36.181-70.273-68.149-142.452-110.609
							c-71.687-42.172-143.872-48.132-175.254-73.363c-17.119-13.766-21.714-44.515-48.299-63.506
							c-42.835-30.6-79.306-33.294-118.1-31.604C3993.108,2615.018,4044.781,2705.444,4087.613,2738.106z"/>
						<path fill="#544B41" d="M4113.668,2328.257c-28.138,0-50.318-9.056-50.318-9.056c0.236,0.155,24.089,2.856,50.318,2.856
							c26.775,0,45.701-1.776,45.891-1.924C4159.559,2320.134,4142.672,2328.257,4113.668,2328.257z"/>
						<path fill="#F0DEC2" stroke="#544B41" stroke-width="2.8211" stroke-miterlimit="10" d="M4033.937,2210.081
							c12.532,0,21.204-2.279,26.558-4.401c6.998-2.771,10.002-5.889,10.033-5.919l-0.118-0.11
							c-0.029,0.029-3.019,3.125-9.984,5.885c-6.437,2.548-17.674,5.324-34.67,4.078c-21.892-1.605-36.262-13.019-44.463-22.314
							c-8.89-10.075-12.646-19.895-12.683-19.993l-0.151,0.053c0.038,0.1,3.804,9.948,12.709,20.041
							c5.231,5.93,11.187,10.789,17.7,14.435c8.141,4.557,17.184,7.229,26.871,7.938
							C4028.64,2209.987,4031.368,2210.081,4033.937,2210.081z"/>
						<path fill="#F0DEC2" stroke="#544B41" stroke-width="2.8211" stroke-miterlimit="10" d="M4247.301,2190.204
							c-8.203,9.294-22.574,20.711-44.462,22.316c-16.997,1.243-28.238-1.53-34.669-4.078c-6.969-2.763-9.956-5.853-9.988-5.888
							l-0.113,0.11c0.029,0.034,3.033,3.147,10.029,5.919c5.354,2.123,14.026,4.401,26.56,4.401c2.566,0,5.297-0.095,8.194-0.304
							c9.69-0.714,18.731-3.385,26.871-7.941c6.517-3.648,12.47-8.505,17.703-14.435c8.905-10.098,12.67-19.941,12.707-20.04
							l-0.148-0.058C4259.947,2170.307,4256.19,2180.129,4247.301,2190.204z"/>
					</g>
				</g>
				<g>
					<path fill="#62524B" d="M3875.425,3052.734c9.123,0,16.112,4.501,20.26,9.356l-3.198,3.557
						c-4.266-4.74-9.952-7.938-17.062-7.938c-17.06,0-27.723,13.624-27.723,35.305s10.545,35.66,27.25,35.66
						c8.055,0,14.099-3.198,19.784-9.597l3.198,3.437c-5.924,6.872-13.031,11.136-23.219,11.136
						c-19.193,0-32.699-15.758-32.699-40.636C3842.017,3068.251,3855.522,3052.734,3875.425,3052.734z"/>
					<path fill="#62524B" d="M3905.156,3092.896c0-24.645,13.388-40.161,32.225-40.161c18.72,0,32.106,15.517,32.106,40.161
						c0,24.762-13.387,40.754-32.106,40.754C3918.544,3133.649,3905.156,3117.657,3905.156,3092.896z M3963.801,3092.896
						c0-21.562-10.663-35.187-26.42-35.187c-15.874,0-26.537,13.624-26.537,35.187c0,21.682,10.663,35.778,26.537,35.778
						C3953.138,3128.674,3963.801,3114.577,3963.801,3092.896z"/>
					<path fill="#62524B" d="M3986.659,3054.155h5.686l32.816,55.092l8.885,15.518h0.475c-0.354-7.581-0.711-15.164-0.711-22.746
						v-47.863h5.095v78.073h-5.687l-32.816-55.089l-8.885-15.521h-0.475c0.354,7.464,0.711,14.572,0.711,22.155v48.454h-5.094
						V3054.155z"/>
					<path fill="#62524B" d="M4061.17,3054.155h42.531v4.739h-37.081v31.04h31.276v4.737h-31.276v37.557h-5.45V3054.155z"/>
					<path fill="#62524B" d="M4116.372,3054.155h5.449v47.51c0,20.73,9.835,27.009,20.852,27.009
						c11.257,0,21.208-6.278,21.208-27.009v-47.51h5.212v48.1c0,24.404-13.033,31.395-26.42,31.395
						c-13.505,0-26.301-6.99-26.301-31.395V3054.155z"/>
					<path fill="#62524B" d="M4219.319,3052.734c9.121,0,16.112,4.501,20.258,9.356l-3.197,3.557
						c-4.266-4.74-9.953-7.938-17.061-7.938c-17.061,0-27.723,13.624-27.723,35.305s10.545,35.66,27.248,35.66
						c8.056,0,14.099-3.198,19.785-9.597l3.199,3.437c-5.924,6.872-13.031,11.136-23.221,11.136
						c-19.192,0-32.697-15.758-32.697-40.636C4185.911,3068.251,4199.416,3052.734,4219.319,3052.734z"/>
					<path fill="#62524B" d="M4256.986,3054.155h5.45v78.073h-5.45V3054.155z"/>
					<path fill="#62524B" d="M4284.23,3054.155h5.45v47.51c0,20.73,9.835,27.009,20.851,27.009c11.256,0,21.208-6.278,21.208-27.009
						v-47.51h5.212v48.1c0,24.404-13.031,31.395-26.42,31.395c-13.507,0-26.301-6.99-26.301-31.395V3054.155z"/>
					<path fill="#62524B" d="M4355.073,3118.132c5.686,6.395,13.859,10.542,22.982,10.542c11.848,0,19.43-6.397,19.43-15.637
						c0-9.715-6.398-12.913-14.099-16.351l-11.847-5.332c-6.753-2.963-15.758-7.818-15.758-19.431
						c0-11.255,9.717-19.189,22.629-19.189c9.479,0,17.061,4.265,21.799,9.356l-3.199,3.675c-4.501-4.858-10.781-8.057-18.6-8.057
						c-10.307,0-17.181,5.45-17.181,13.981c0,9.004,7.821,12.438,13.509,15.045l11.847,5.212c8.648,3.913,16.35,8.769,16.35,20.734
						c0,11.964-9.835,20.968-24.999,20.968c-11.373,0-20.141-4.856-26.302-11.729L4355.073,3118.132z"/>
				</g>
			</g>
			<g>
				<g>
					<path opacity="0.15" fill="#FEFFF7" d="M3295.708,2891.209h-907.003c-62.586,0-113.319-45.572-113.319-101.788v-930.067
						c0-56.215,50.733-101.786,113.319-101.786h907.003c62.584,0,113.32,45.571,113.32,101.786v930.067
						C3409.028,2845.637,3358.292,2891.209,3295.708,2891.209z"/>
					<g>
						
							<ellipse transform="matrix(0.8941 -0.4478 0.4478 0.8941 -632.0352 1418.6407)" fill="#EFF2E0" cx="2684.396" cy="2046.069" rx="97.762" ry="95.411"/>
						
							<ellipse transform="matrix(-0.8941 -0.4478 0.4478 -0.8941 4705.6353 5204.5801)" fill="#EFF2E0" cx="2968.016" cy="2046.069" rx="97.762" ry="95.411"/>
						<path fill="#F0DEC2" d="M2916.128,2354.238c-4.059-4.148,0-23.217,0-23.217c55.064-29.244,96.768-84.419,112.203-151.249
							c30.279-1.723,54.303-26.815,54.303-57.525c0-30.711-24.023-55.803-54.303-57.527
							c-23.09-99.974-104.959-173.884-202.417-173.884c-97.631,0-179.612,74.173-202.535,174.417
							c-27.772,4.13-49.079,28.07-49.079,56.993c0,28.922,21.307,52.862,49.079,56.993c15.807,69.12,59.694,125.84,117.427,154.402
							c0,0,3.565,16.726,0,20.357c-89.615,91.317-220.671,19.093-220.671,128.164c0,0.88,0.028,1.756,0.071,2.631l-60.268,341.305
							l141.521,24.99l46.889-265.535c52.448,15.783,117.329,25.117,187.569,25.117c174.4,0,315.781-57.534,315.781-128.508
							C3151.698,2374.933,3010.96,2451.146,2916.128,2354.238z"/>
						<path fill="#EFF2E0" d="M2988.438,2065.14c-1.225,14.331-21.779,15.836-60.936,20.928c-32.275,4.196-60.041-2.947-56.5-30.969
							c3.555-28.126,30.178-31.565,60.936-20.926C2969.265,2047.087,2989.663,2050.811,2988.438,2065.14z"/>
						<path fill="#EFF2E0" d="M2662.729,2065.14c1.224,14.331,21.779,15.836,60.936,20.928c32.274,4.196,60.039-2.947,56.498-30.969
							c-3.555-28.126-30.178-31.565-60.935-20.926C2681.9,2047.087,2661.502,2050.811,2662.729,2065.14z"/>
						<g>
							<path fill="#544B41" d="M2969.165,2179.562h-109.992c-6.826,0-12.381-6.009-12.381-13.395v-50.351
								c0-7.387,5.555-13.396,12.381-13.396h109.992c6.826,0,12.381,6.009,12.381,13.396v50.351
								C2981.546,2173.553,2975.991,2179.562,2969.165,2179.562z M2859.173,2112.075c-1.479,0-2.727,1.713-2.727,3.741v50.351
								c0,2.027,1.248,3.74,2.727,3.74h109.992c1.479,0,2.727-1.713,2.727-3.74v-50.351c0-2.028-1.248-3.741-2.727-3.741H2859.173z"
								/>
							<circle fill="#544B41" cx="2914.169" cy="2147.573" r="10.238"/>
						</g>
						<g>
							<path fill="#544B41" d="M2793.843,2179.562h-109.991c-6.827,0-12.382-6.009-12.382-13.395v-50.351
								c0-7.387,5.555-13.396,12.382-13.396h109.991c6.827,0,12.382,6.009,12.382,13.396v50.351
								C2806.225,2173.553,2800.67,2179.562,2793.843,2179.562z M2683.852,2112.075c-1.479,0-2.728,1.713-2.728,3.741v50.351
								c0,2.027,1.249,3.74,2.728,3.74h109.991c1.479,0,2.728-1.713,2.728-3.74v-50.351c0-2.028-1.249-3.741-2.728-3.741H2683.852z"
								/>
							<circle fill="#544B41" cx="2738.847" cy="2147.573" r="10.238"/>
						</g>
						<g>
							<path fill="#544B41" d="M2801.397,2143.758c0,0,17.022-2.925,24.048-3.021c5.964-0.083,26.173,3.506,26.173,3.506"/>
							<path fill="#544B41" d="M2850.694,2149.449c-7.926-1.408-21.175-3.496-25.176-3.425c-5.423,0.075-18.604,2.152-23.227,2.946
								l-1.791-10.423c0.712-0.123,17.517-2.996,24.872-3.098c0.081-0.001,0.166-0.002,0.251-0.002
								c6.52,0,24.826,3.217,26.918,3.588L2850.694,2149.449z"/>
						</g>
						<path fill="#E5BC1B" d="M2667.367,2397.56c-74.271,22.764-147.232,3.221-147.232,84.604c0,0.88,0.028,1.756,0.071,2.631
							l126.971,100.136l165.253-1.417L2667.367,2397.56z"/>
						<path fill="#544B41" d="M2820.275,2294.637c-38.5,0-68.851-29.966-68.851-29.966c0.324,0.213,32.961,21.483,68.851,21.483
							c36.636,0,62.532-20.003,62.79-20.206C2883.065,2265.948,2859.96,2294.637,2820.275,2294.637z"/>
						
							<rect x="2593.713" y="2097.447" transform="matrix(0.5447 0.8386 -0.8386 0.5447 2968.7812 -1262.6191)" fill="#544B41" width="106.927" height="10.576"/>
						
							<rect x="3000.782" y="2049.271" transform="matrix(0.8387 0.5446 -0.5446 0.8387 1630.1417 -1297.9675)" fill="#544B41" width="10.577" height="106.927"/>
						<path fill="#F28E6B" d="M3223.073,2832.142l-56.213-318.34c-0.213-17.156-2.916-31.993-7.912-44.805l-0.025-0.15l-0.029,0.005
							c-22.904-58.47-93.492-74.925-191.408-79.554c0,0-0.471,74.175-59.836,112.242c-138.178,88.607-260.473,83.39-260.473,83.39
							v308.069h404.266h115.445c0.453-14.339,0.758-31.711,0.953-51.104L3223.073,2832.142z"/>
						<path fill="#F0DEC2" d="M2847.29,2548.784c-14.493-3.256-35.609,35.789-47.164,87.211c-3.563,15.862-5.8,31.048-6.765,44.563
							c-38.828,2.267-104.595,26.244-178.984,44.869c-145.898,36.525-165.822,89.651-151.145,124.08
							c14.679,34.431,108.257,27.52,209.018-15.434c81.849-34.893,143.258-82.834,155.558-118.056
							c9.363-15.828,18.508-40.186,24.809-68.228C2864.169,2596.367,2861.784,2552.04,2847.29,2548.784z"/>
						<path fill="#F0DEC2" d="M3070.036,2725.428c-74.836-18.736-140.949-42.894-179.686-44.912
							c-0.967-13.505-3.201-28.675-6.762-44.521c-11.555-51.423-32.67-90.468-47.164-87.211s-16.879,47.583-5.326,99.006
							c6.726,29.933,16.691,55.666,26.703,71.309c14.672,34.899,74.871,81.09,154.361,114.976
							c100.76,42.953,194.34,49.864,209.018,15.434C3235.858,2815.079,3215.935,2761.953,3070.036,2725.428z"/>
					</g>
				</g>
				<g>
					<path fill="#62524B" d="M2429.623,3055.578h18.008c24.05,0,35.541,15.163,35.541,38.738c0,23.695-11.491,39.333-35.424,39.333
						h-18.125V3055.578z M2447.038,3129.03c21.207,0,30.448-14.335,30.448-34.714c0-20.258-9.241-34.117-30.448-34.117h-11.966
						v68.831H2447.038z"/>
					<path fill="#62524B" d="M2534.347,3106.876h-30.921l-9.122,26.773h-5.568l27.604-78.071h5.449l27.485,78.071h-5.806
						L2534.347,3106.876z M2532.807,3102.256l-4.977-14.573c-3.079-9.24-5.923-17.415-8.647-27.012h-0.475
						c-2.725,9.597-5.449,17.771-8.647,27.012l-4.977,14.573H2532.807z"/>
					<path fill="#62524B" d="M2560.88,3055.578h5.448v73.332h35.898v4.739h-41.347V3055.578z"/>
					<path fill="#62524B" d="M2651.269,3106.876h-30.923l-9.122,26.773h-5.568l27.604-78.071h5.449l27.485,78.071h-5.804
						L2651.269,3106.876z M2649.728,3102.256l-4.977-14.573c-3.08-9.24-5.923-17.415-8.647-27.012h-0.475
						c-2.726,9.597-5.449,17.771-8.648,27.012l-4.976,14.573H2649.728z"/>
					<path fill="#62524B" d="M2677.8,3055.578h5.45v78.071h-5.45V3055.578z"/>
					<path fill="#62524B" d="M2728.973,3055.578h5.448v73.332h35.898v4.739h-41.347V3055.578z"/>
					<path fill="#62524B" d="M2819.361,3106.876h-30.922l-9.122,26.773h-5.569l27.604-78.071h5.45l27.486,78.071h-5.805
						L2819.361,3106.876z M2817.82,3102.256l-4.976-14.573c-3.081-9.24-5.924-17.415-8.647-27.012h-0.476
						c-2.724,9.597-5.449,17.771-8.647,27.012l-4.976,14.573H2817.82z"/>
					<path fill="#62524B" d="M2845.893,3055.578h7.582l16.35,45.847l6.16,17.298h0.473l6.043-17.298l16.23-45.847h7.701v78.071
						h-5.332v-51.298c0-6.396,0.357-14.57,0.711-21.09h-0.473l-6.041,17.181l-16.824,46.678h-4.74l-16.822-46.678l-6.16-17.181
						h-0.475c0.238,6.52,0.594,14.693,0.594,21.09v51.298h-4.977V3055.578z"/>
					<path fill="#62524B" d="M2963.646,3106.876h-30.922l-9.123,26.773h-5.566l27.604-78.071h5.449l27.486,78.071h-5.807
						L2963.646,3106.876z M2962.105,3102.256l-4.977-14.573c-3.078-9.24-5.924-17.415-8.648-27.012h-0.473
						c-2.725,9.597-5.451,17.771-8.65,27.012l-4.975,14.573H2962.105z"/>
					<path fill="#62524B" d="M3012.566,3129.03h17.771v-62.792h-13.508v-3.553c6.162-1.066,11.02-2.725,14.574-4.74h4.264v71.085
						h16.467v4.619h-39.568V3129.03z"/>
					<path fill="#62524B" d="M3112.432,3111.024h-11.254v22.625h-5.096v-22.625h-34.83v-3.082l35.188-49.997h4.738v48.576h11.254
						V3111.024z M3096.082,3106.521v-27.723c0-3.437,0.238-9.597,0.475-13.031h-0.475c-1.895,3.197-4.027,6.04-6.158,9.476
						l-22.275,31.278H3096.082z"/>
					<path fill="#62524B" d="M3144.059,3060.316h-24.881v-4.738h55.092v4.738h-24.762v73.333h-5.449V3060.316z"/>
					<path fill="#62524B" d="M3188.48,3055.578h5.449v34.237h41.701v-34.237h5.451v78.071h-5.451v-39.094h-41.701v39.094h-5.449
						V3055.578z"/>
				</g>
			</g>
		</g>
	</g>
</g>
</svg>
